ISO-10303-21;
HEADER;
/* Generated by software containing ST-Developer
 * from STEP Tools, Inc. (www.steptools.com) 
 */
/* OPTION: using custom renumber hook */

FILE_DESCRIPTION(
/* description */ ('STEP AP242 Edition 2',
'CAx-IF Rec.Pracs.---Representation and Presentation of Product Manufa
cturing Information (PMI)---4.0---2014-10-13',
'CAx-IF Rec.Pracs.---3D Tessellated Geometry---0.4---2014-09-14','2;1',
'CAx-IF Rec.Pracs.---User Defined Attributes---1.5---2016-08-15'),
/* implementation_level */ '2;1');

FILE_NAME(
/* name */ 'Battery Holder',
/* time_stamp */ '2026-08-13T22:46:15Z',
/* author */ (''),
/* organization */ (''),
/* preprocessor_version */ 'ST-DEVELOPER v20',
/* originating_system */ 'ONSHAPE BY PTC INC, 1.219',
/* authorisation */ '  ');

FILE_SCHEMA (('AP242_MANAGED_MODEL_BASED_3D_ENGINEERING_MIM_LF { 1 0 10303 442 3 1 4 }'));
ENDSEC;

DATA;
#10=SHAPE_REPRESENTATION_RELATIONSHIP('','',#1427,#11);
#11=ADVANCED_BREP_SHAPE_REPRESENTATION('',(#1425),#2325);
#12=ELLIPSE('',#1508,0.00141421356237309,0.001);
#13=ELLIPSE('',#1509,0.00141421356237309,0.001);
#14=ELLIPSE('',#1511,0.00141421356237309,0.001);
#15=ELLIPSE('',#1513,0.00141421356237309,0.001);
#16=ELLIPSE('',#1516,0.00141421356237309,0.001);
#17=ELLIPSE('',#1517,0.00141421356237309,0.001);
#18=ELLIPSE('',#1519,0.00141421356237309,0.001);
#19=ELLIPSE('',#1521,0.00141421356237309,0.001);
#20=ELLIPSE('',#1524,0.00141421356237309,0.001);
#21=ELLIPSE('',#1525,0.00141421356237309,0.001);
#22=ELLIPSE('',#1527,0.00141421356237309,0.001);
#23=ELLIPSE('',#1529,0.00141421356237309,0.001);
#24=ELLIPSE('',#1532,0.00141421356237309,0.001);
#25=ELLIPSE('',#1533,0.00141421356237309,0.001);
#26=ELLIPSE('',#1535,0.00141421356237309,0.001);
#27=ELLIPSE('',#1537,0.00141421356237309,0.001);
#28=CYLINDRICAL_SURFACE('',#1456,0.001);
#29=CYLINDRICAL_SURFACE('',#1462,0.001);
#30=CYLINDRICAL_SURFACE('',#1468,0.001);
#31=CYLINDRICAL_SURFACE('',#1471,0.001);
#32=CYLINDRICAL_SURFACE('',#1486,0.001);
#33=CYLINDRICAL_SURFACE('',#1490,0.005);
#34=CYLINDRICAL_SURFACE('',#1494,0.005);
#35=CYLINDRICAL_SURFACE('',#1498,0.005);
#36=CYLINDRICAL_SURFACE('',#1502,0.005);
#37=CYLINDRICAL_SURFACE('',#1507,0.001);
#38=CYLINDRICAL_SURFACE('',#1510,0.001);
#39=CYLINDRICAL_SURFACE('',#1512,0.001);
#40=CYLINDRICAL_SURFACE('',#1514,0.001);
#41=CYLINDRICAL_SURFACE('',#1515,0.001);
#42=CYLINDRICAL_SURFACE('',#1518,0.001);
#43=CYLINDRICAL_SURFACE('',#1520,0.001);
#44=CYLINDRICAL_SURFACE('',#1522,0.001);
#45=CYLINDRICAL_SURFACE('',#1523,0.001);
#46=CYLINDRICAL_SURFACE('',#1526,0.001);
#47=CYLINDRICAL_SURFACE('',#1528,0.001);
#48=CYLINDRICAL_SURFACE('',#1530,0.001);
#49=CYLINDRICAL_SURFACE('',#1531,0.001);
#50=CYLINDRICAL_SURFACE('',#1534,0.001);
#51=CYLINDRICAL_SURFACE('',#1536,0.001);
#52=CYLINDRICAL_SURFACE('',#1538,0.001);
#53=CIRCLE('',#1450,0.001);
#54=CIRCLE('',#1451,0.001);
#55=CIRCLE('',#1457,0.001);
#56=CIRCLE('',#1459,0.001);
#57=CIRCLE('',#1460,0.001);
#58=CIRCLE('',#1461,0.001);
#59=CIRCLE('',#1463,0.001);
#60=CIRCLE('',#1469,0.001);
#61=CIRCLE('',#1472,0.001);
#62=CIRCLE('',#1487,0.001);
#63=CIRCLE('',#1491,0.005);
#64=CIRCLE('',#1492,0.005);
#65=CIRCLE('',#1495,0.005);
#66=CIRCLE('',#1496,0.005);
#67=CIRCLE('',#1499,0.005);
#68=CIRCLE('',#1500,0.005);
#69=CIRCLE('',#1503,0.005);
#70=CIRCLE('',#1504,0.005);
#71=ORIENTED_EDGE('',*,*,#467,.F.);
#72=ORIENTED_EDGE('',*,*,#468,.T.);
#73=ORIENTED_EDGE('',*,*,#469,.T.);
#74=ORIENTED_EDGE('',*,*,#470,.T.);
#75=ORIENTED_EDGE('',*,*,#471,.T.);
#76=ORIENTED_EDGE('',*,*,#472,.F.);
#77=ORIENTED_EDGE('',*,*,#473,.F.);
#78=ORIENTED_EDGE('',*,*,#474,.T.);
#79=ORIENTED_EDGE('',*,*,#467,.T.);
#80=ORIENTED_EDGE('',*,*,#475,.F.);
#81=ORIENTED_EDGE('',*,*,#476,.F.);
#82=ORIENTED_EDGE('',*,*,#477,.F.);
#83=ORIENTED_EDGE('',*,*,#478,.T.);
#84=ORIENTED_EDGE('',*,*,#479,.F.);
#85=ORIENTED_EDGE('',*,*,#480,.F.);
#86=ORIENTED_EDGE('',*,*,#481,.T.);
#87=ORIENTED_EDGE('',*,*,#482,.T.);
#88=ORIENTED_EDGE('',*,*,#483,.T.);
#89=ORIENTED_EDGE('',*,*,#484,.F.);
#90=ORIENTED_EDGE('',*,*,#485,.T.);
#91=ORIENTED_EDGE('',*,*,#480,.T.);
#92=ORIENTED_EDGE('',*,*,#486,.T.);
#93=ORIENTED_EDGE('',*,*,#487,.F.);
#94=ORIENTED_EDGE('',*,*,#488,.F.);
#95=ORIENTED_EDGE('',*,*,#489,.F.);
#96=ORIENTED_EDGE('',*,*,#490,.T.);
#97=ORIENTED_EDGE('',*,*,#484,.T.);
#98=ORIENTED_EDGE('',*,*,#491,.T.);
#99=ORIENTED_EDGE('',*,*,#482,.F.);
#100=ORIENTED_EDGE('',*,*,#492,.T.);
#101=ORIENTED_EDGE('',*,*,#489,.T.);
#102=ORIENTED_EDGE('',*,*,#493,.T.);
#103=ORIENTED_EDGE('',*,*,#494,.T.);
#104=ORIENTED_EDGE('',*,*,#469,.F.);
#105=ORIENTED_EDGE('',*,*,#495,.T.);
#106=ORIENTED_EDGE('',*,*,#496,.T.);
#107=ORIENTED_EDGE('',*,*,#497,.T.);
#108=ORIENTED_EDGE('',*,*,#496,.F.);
#109=ORIENTED_EDGE('',*,*,#498,.T.);
#110=ORIENTED_EDGE('',*,*,#473,.T.);
#111=ORIENTED_EDGE('',*,*,#499,.F.);
#112=ORIENTED_EDGE('',*,*,#500,.F.);
#113=ORIENTED_EDGE('',*,*,#501,.F.);
#114=ORIENTED_EDGE('',*,*,#502,.T.);
#115=ORIENTED_EDGE('',*,*,#503,.T.);
#116=ORIENTED_EDGE('',*,*,#504,.F.);
#117=ORIENTED_EDGE('',*,*,#505,.F.);
#118=ORIENTED_EDGE('',*,*,#506,.T.);
#119=ORIENTED_EDGE('',*,*,#501,.T.);
#120=ORIENTED_EDGE('',*,*,#507,.T.);
#121=ORIENTED_EDGE('',*,*,#508,.T.);
#122=ORIENTED_EDGE('',*,*,#503,.F.);
#123=ORIENTED_EDGE('',*,*,#509,.T.);
#124=ORIENTED_EDGE('',*,*,#510,.T.);
#125=ORIENTED_EDGE('',*,*,#511,.T.);
#126=ORIENTED_EDGE('',*,*,#512,.F.);
#127=ORIENTED_EDGE('',*,*,#513,.F.);
#128=ORIENTED_EDGE('',*,*,#514,.F.);
#129=ORIENTED_EDGE('',*,*,#515,.T.);
#130=ORIENTED_EDGE('',*,*,#516,.T.);
#131=ORIENTED_EDGE('',*,*,#517,.F.);
#132=ORIENTED_EDGE('',*,*,#518,.F.);
#133=ORIENTED_EDGE('',*,*,#519,.T.);
#134=ORIENTED_EDGE('',*,*,#514,.T.);
#135=ORIENTED_EDGE('',*,*,#520,.T.);
#136=ORIENTED_EDGE('',*,*,#521,.T.);
#137=ORIENTED_EDGE('',*,*,#522,.F.);
#138=ORIENTED_EDGE('',*,*,#523,.F.);
#139=ORIENTED_EDGE('',*,*,#524,.T.);
#140=ORIENTED_EDGE('',*,*,#518,.T.);
#141=ORIENTED_EDGE('',*,*,#525,.T.);
#142=ORIENTED_EDGE('',*,*,#526,.F.);
#143=ORIENTED_EDGE('',*,*,#527,.T.);
#144=ORIENTED_EDGE('',*,*,#528,.T.);
#145=ORIENTED_EDGE('',*,*,#529,.T.);
#146=ORIENTED_EDGE('',*,*,#510,.F.);
#147=ORIENTED_EDGE('',*,*,#530,.T.);
#148=ORIENTED_EDGE('',*,*,#505,.T.);
#149=ORIENTED_EDGE('',*,*,#531,.F.);
#150=ORIENTED_EDGE('',*,*,#516,.F.);
#151=ORIENTED_EDGE('',*,*,#532,.T.);
#152=ORIENTED_EDGE('',*,*,#523,.T.);
#153=ORIENTED_EDGE('',*,*,#533,.F.);
#154=ORIENTED_EDGE('',*,*,#534,.F.);
#155=ORIENTED_EDGE('',*,*,#535,.F.);
#156=ORIENTED_EDGE('',*,*,#536,.T.);
#157=ORIENTED_EDGE('',*,*,#537,.T.);
#158=ORIENTED_EDGE('',*,*,#528,.F.);
#159=ORIENTED_EDGE('',*,*,#538,.F.);
#160=ORIENTED_EDGE('',*,*,#539,.T.);
#161=ORIENTED_EDGE('',*,*,#526,.T.);
#162=ORIENTED_EDGE('',*,*,#540,.F.);
#163=ORIENTED_EDGE('',*,*,#520,.F.);
#164=ORIENTED_EDGE('',*,*,#541,.F.);
#165=ORIENTED_EDGE('',*,*,#542,.T.);
#166=ORIENTED_EDGE('',*,*,#543,.T.);
#167=ORIENTED_EDGE('',*,*,#534,.T.);
#168=ORIENTED_EDGE('',*,*,#544,.T.);
#169=ORIENTED_EDGE('',*,*,#507,.F.);
#170=ORIENTED_EDGE('',*,*,#545,.F.);
#171=ORIENTED_EDGE('',*,*,#546,.F.);
#172=ORIENTED_EDGE('',*,*,#493,.F.);
#173=ORIENTED_EDGE('',*,*,#547,.T.);
#174=ORIENTED_EDGE('',*,*,#500,.T.);
#175=ORIENTED_EDGE('',*,*,#548,.T.);
#176=ORIENTED_EDGE('',*,*,#488,.T.);
#177=ORIENTED_EDGE('',*,*,#549,.F.);
#178=ORIENTED_EDGE('',*,*,#550,.F.);
#179=ORIENTED_EDGE('',*,*,#551,.F.);
#180=ORIENTED_EDGE('',*,*,#552,.F.);
#181=ORIENTED_EDGE('',*,*,#477,.T.);
#182=ORIENTED_EDGE('',*,*,#553,.T.);
#183=ORIENTED_EDGE('',*,*,#554,.F.);
#184=ORIENTED_EDGE('',*,*,#555,.T.);
#185=ORIENTED_EDGE('',*,*,#556,.T.);
#186=ORIENTED_EDGE('',*,*,#557,.F.);
#187=ORIENTED_EDGE('',*,*,#558,.F.);
#188=ORIENTED_EDGE('',*,*,#535,.T.);
#189=ORIENTED_EDGE('',*,*,#527,.F.);
#190=ORIENTED_EDGE('',*,*,#539,.F.);
#191=ORIENTED_EDGE('',*,*,#559,.F.);
#192=ORIENTED_EDGE('',*,*,#543,.F.);
#193=ORIENTED_EDGE('',*,*,#560,.F.);
#194=ORIENTED_EDGE('',*,*,#549,.T.);
#195=ORIENTED_EDGE('',*,*,#561,.F.);
#196=ORIENTED_EDGE('',*,*,#562,.T.);
#197=ORIENTED_EDGE('',*,*,#560,.T.);
#198=ORIENTED_EDGE('',*,*,#542,.F.);
#199=ORIENTED_EDGE('',*,*,#563,.F.);
#200=ORIENTED_EDGE('',*,*,#550,.T.);
#201=ORIENTED_EDGE('',*,*,#564,.F.);
#202=ORIENTED_EDGE('',*,*,#513,.T.);
#203=ORIENTED_EDGE('',*,*,#557,.T.);
#204=ORIENTED_EDGE('',*,*,#565,.F.);
#205=ORIENTED_EDGE('',*,*,#566,.F.);
#206=ORIENTED_EDGE('',*,*,#567,.F.);
#207=ORIENTED_EDGE('',*,*,#565,.T.);
#208=ORIENTED_EDGE('',*,*,#556,.F.);
#209=ORIENTED_EDGE('',*,*,#568,.F.);
#210=ORIENTED_EDGE('',*,*,#569,.T.);
#211=ORIENTED_EDGE('',*,*,#570,.T.);
#212=ORIENTED_EDGE('',*,*,#571,.T.);
#213=ORIENTED_EDGE('',*,*,#470,.F.);
#214=ORIENTED_EDGE('',*,*,#572,.T.);
#215=ORIENTED_EDGE('',*,*,#568,.T.);
#216=ORIENTED_EDGE('',*,*,#555,.F.);
#217=ORIENTED_EDGE('',*,*,#561,.T.);
#218=ORIENTED_EDGE('',*,*,#573,.F.);
#219=ORIENTED_EDGE('',*,*,#574,.F.);
#220=ORIENTED_EDGE('',*,*,#575,.T.);
#221=ORIENTED_EDGE('',*,*,#576,.F.);
#222=ORIENTED_EDGE('',*,*,#577,.T.);
#223=ORIENTED_EDGE('',*,*,#578,.F.);
#224=ORIENTED_EDGE('',*,*,#579,.F.);
#225=ORIENTED_EDGE('',*,*,#580,.F.);
#226=ORIENTED_EDGE('',*,*,#581,.T.);
#227=ORIENTED_EDGE('',*,*,#582,.T.);
#228=ORIENTED_EDGE('',*,*,#566,.T.);
#229=ORIENTED_EDGE('',*,*,#571,.F.);
#230=ORIENTED_EDGE('',*,*,#583,.T.);
#231=ORIENTED_EDGE('',*,*,#576,.T.);
#232=ORIENTED_EDGE('',*,*,#584,.F.);
#233=ORIENTED_EDGE('',*,*,#585,.T.);
#234=ORIENTED_EDGE('',*,*,#575,.F.);
#235=ORIENTED_EDGE('',*,*,#586,.F.);
#236=ORIENTED_EDGE('',*,*,#587,.F.);
#237=ORIENTED_EDGE('',*,*,#584,.T.);
#238=ORIENTED_EDGE('',*,*,#586,.T.);
#239=ORIENTED_EDGE('',*,*,#574,.T.);
#240=ORIENTED_EDGE('',*,*,#570,.F.);
#241=ORIENTED_EDGE('',*,*,#588,.T.);
#242=ORIENTED_EDGE('',*,*,#567,.T.);
#243=ORIENTED_EDGE('',*,*,#582,.F.);
#244=ORIENTED_EDGE('',*,*,#589,.F.);
#245=ORIENTED_EDGE('',*,*,#590,.T.);
#246=ORIENTED_EDGE('',*,*,#589,.T.);
#247=ORIENTED_EDGE('',*,*,#581,.F.);
#248=ORIENTED_EDGE('',*,*,#591,.F.);
#249=ORIENTED_EDGE('',*,*,#592,.T.);
#250=ORIENTED_EDGE('',*,*,#591,.T.);
#251=ORIENTED_EDGE('',*,*,#580,.T.);
#252=ORIENTED_EDGE('',*,*,#593,.F.);
#253=ORIENTED_EDGE('',*,*,#594,.T.);
#254=ORIENTED_EDGE('',*,*,#593,.T.);
#255=ORIENTED_EDGE('',*,*,#579,.T.);
#256=ORIENTED_EDGE('',*,*,#595,.F.);
#257=ORIENTED_EDGE('',*,*,#596,.T.);
#258=ORIENTED_EDGE('',*,*,#595,.T.);
#259=ORIENTED_EDGE('',*,*,#578,.T.);
#260=ORIENTED_EDGE('',*,*,#597,.F.);
#261=ORIENTED_EDGE('',*,*,#598,.T.);
#262=ORIENTED_EDGE('',*,*,#577,.F.);
#263=ORIENTED_EDGE('',*,*,#583,.F.);
#264=ORIENTED_EDGE('',*,*,#599,.F.);
#265=ORIENTED_EDGE('',*,*,#597,.T.);
#266=ORIENTED_EDGE('',*,*,#585,.F.);
#267=ORIENTED_EDGE('',*,*,#587,.T.);
#268=ORIENTED_EDGE('',*,*,#588,.F.);
#269=ORIENTED_EDGE('',*,*,#569,.F.);
#270=ORIENTED_EDGE('',*,*,#572,.F.);
#271=ORIENTED_EDGE('',*,*,#497,.F.);
#272=ORIENTED_EDGE('',*,*,#547,.F.);
#273=ORIENTED_EDGE('',*,*,#491,.F.);
#274=ORIENTED_EDGE('',*,*,#548,.F.);
#275=ORIENTED_EDGE('',*,*,#563,.T.);
#276=ORIENTED_EDGE('',*,*,#541,.T.);
#277=ORIENTED_EDGE('',*,*,#517,.T.);
#278=ORIENTED_EDGE('',*,*,#545,.T.);
#279=ORIENTED_EDGE('',*,*,#504,.T.);
#280=ORIENTED_EDGE('',*,*,#564,.T.);
#281=ORIENTED_EDGE('',*,*,#590,.F.);
#282=ORIENTED_EDGE('',*,*,#592,.F.);
#283=ORIENTED_EDGE('',*,*,#594,.F.);
#284=ORIENTED_EDGE('',*,*,#596,.F.);
#285=ORIENTED_EDGE('',*,*,#598,.F.);
#286=ORIENTED_EDGE('',*,*,#599,.T.);
#287=ORIENTED_EDGE('',*,*,#479,.T.);
#288=ORIENTED_EDGE('',*,*,#600,.F.);
#289=ORIENTED_EDGE('',*,*,#601,.F.);
#290=ORIENTED_EDGE('',*,*,#486,.F.);
#291=ORIENTED_EDGE('',*,*,#478,.F.);
#292=ORIENTED_EDGE('',*,*,#552,.T.);
#293=ORIENTED_EDGE('',*,*,#602,.T.);
#294=ORIENTED_EDGE('',*,*,#600,.T.);
#295=ORIENTED_EDGE('',*,*,#602,.F.);
#296=ORIENTED_EDGE('',*,*,#551,.T.);
#297=ORIENTED_EDGE('',*,*,#487,.T.);
#298=ORIENTED_EDGE('',*,*,#601,.T.);
#299=ORIENTED_EDGE('',*,*,#603,.T.);
#300=ORIENTED_EDGE('',*,*,#475,.T.);
#301=ORIENTED_EDGE('',*,*,#472,.T.);
#302=ORIENTED_EDGE('',*,*,#604,.F.);
#303=ORIENTED_EDGE('',*,*,#471,.F.);
#304=ORIENTED_EDGE('',*,*,#554,.T.);
#305=ORIENTED_EDGE('',*,*,#605,.T.);
#306=ORIENTED_EDGE('',*,*,#604,.T.);
#307=ORIENTED_EDGE('',*,*,#553,.F.);
#308=ORIENTED_EDGE('',*,*,#476,.T.);
#309=ORIENTED_EDGE('',*,*,#603,.F.);
#310=ORIENTED_EDGE('',*,*,#605,.F.);
#311=ORIENTED_EDGE('',*,*,#536,.F.);
#312=ORIENTED_EDGE('',*,*,#558,.T.);
#313=ORIENTED_EDGE('',*,*,#512,.T.);
#314=ORIENTED_EDGE('',*,*,#606,.F.);
#315=ORIENTED_EDGE('',*,*,#606,.T.);
#316=ORIENTED_EDGE('',*,*,#511,.F.);
#317=ORIENTED_EDGE('',*,*,#529,.F.);
#318=ORIENTED_EDGE('',*,*,#537,.F.);
#319=ORIENTED_EDGE('',*,*,#521,.F.);
#320=ORIENTED_EDGE('',*,*,#559,.T.);
#321=ORIENTED_EDGE('',*,*,#538,.T.);
#322=ORIENTED_EDGE('',*,*,#607,.F.);
#323=ORIENTED_EDGE('',*,*,#607,.T.);
#324=ORIENTED_EDGE('',*,*,#540,.T.);
#325=ORIENTED_EDGE('',*,*,#525,.F.);
#326=ORIENTED_EDGE('',*,*,#522,.T.);
#327=ORIENTED_EDGE('',*,*,#483,.F.);
#328=ORIENTED_EDGE('',*,*,#494,.F.);
#329=ORIENTED_EDGE('',*,*,#546,.T.);
#330=ORIENTED_EDGE('',*,*,#499,.T.);
#331=ORIENTED_EDGE('',*,*,#573,.T.);
#332=ORIENTED_EDGE('',*,*,#608,.T.);
#333=ORIENTED_EDGE('',*,*,#562,.F.);
#334=ORIENTED_EDGE('',*,*,#608,.F.);
#335=ORIENTED_EDGE('',*,*,#533,.T.);
#336=ORIENTED_EDGE('',*,*,#531,.T.);
#337=ORIENTED_EDGE('',*,*,#508,.F.);
#338=ORIENTED_EDGE('',*,*,#544,.F.);
#339=ORIENTED_EDGE('',*,*,#609,.T.);
#340=ORIENTED_EDGE('',*,*,#610,.F.);
#341=ORIENTED_EDGE('',*,*,#611,.F.);
#342=ORIENTED_EDGE('',*,*,#612,.T.);
#343=ORIENTED_EDGE('',*,*,#613,.F.);
#344=ORIENTED_EDGE('',*,*,#612,.F.);
#345=ORIENTED_EDGE('',*,*,#614,.T.);
#346=ORIENTED_EDGE('',*,*,#615,.T.);
#347=ORIENTED_EDGE('',*,*,#616,.T.);
#348=ORIENTED_EDGE('',*,*,#615,.F.);
#349=ORIENTED_EDGE('',*,*,#617,.F.);
#350=ORIENTED_EDGE('',*,*,#618,.T.);
#351=ORIENTED_EDGE('',*,*,#619,.F.);
#352=ORIENTED_EDGE('',*,*,#618,.F.);
#353=ORIENTED_EDGE('',*,*,#620,.T.);
#354=ORIENTED_EDGE('',*,*,#621,.T.);
#355=ORIENTED_EDGE('',*,*,#622,.F.);
#356=ORIENTED_EDGE('',*,*,#621,.F.);
#357=ORIENTED_EDGE('',*,*,#623,.T.);
#358=ORIENTED_EDGE('',*,*,#624,.T.);
#359=ORIENTED_EDGE('',*,*,#625,.F.);
#360=ORIENTED_EDGE('',*,*,#624,.F.);
#361=ORIENTED_EDGE('',*,*,#626,.T.);
#362=ORIENTED_EDGE('',*,*,#627,.T.);
#363=ORIENTED_EDGE('',*,*,#628,.F.);
#364=ORIENTED_EDGE('',*,*,#627,.F.);
#365=ORIENTED_EDGE('',*,*,#629,.T.);
#366=ORIENTED_EDGE('',*,*,#630,.T.);
#367=ORIENTED_EDGE('',*,*,#631,.F.);
#368=ORIENTED_EDGE('',*,*,#630,.F.);
#369=ORIENTED_EDGE('',*,*,#632,.T.);
#370=ORIENTED_EDGE('',*,*,#610,.T.);
#371=ORIENTED_EDGE('',*,*,#633,.T.);
#372=ORIENTED_EDGE('',*,*,#634,.T.);
#373=ORIENTED_EDGE('',*,*,#635,.T.);
#374=ORIENTED_EDGE('',*,*,#636,.T.);
#375=ORIENTED_EDGE('',*,*,#637,.T.);
#376=ORIENTED_EDGE('',*,*,#638,.T.);
#377=ORIENTED_EDGE('',*,*,#639,.T.);
#378=ORIENTED_EDGE('',*,*,#640,.T.);
#379=ORIENTED_EDGE('',*,*,#641,.T.);
#380=ORIENTED_EDGE('',*,*,#642,.T.);
#381=ORIENTED_EDGE('',*,*,#643,.T.);
#382=ORIENTED_EDGE('',*,*,#644,.T.);
#383=ORIENTED_EDGE('',*,*,#645,.T.);
#384=ORIENTED_EDGE('',*,*,#646,.T.);
#385=ORIENTED_EDGE('',*,*,#647,.T.);
#386=ORIENTED_EDGE('',*,*,#648,.T.);
#387=ORIENTED_EDGE('',*,*,#611,.T.);
#388=ORIENTED_EDGE('',*,*,#632,.F.);
#389=ORIENTED_EDGE('',*,*,#629,.F.);
#390=ORIENTED_EDGE('',*,*,#626,.F.);
#391=ORIENTED_EDGE('',*,*,#623,.F.);
#392=ORIENTED_EDGE('',*,*,#620,.F.);
#393=ORIENTED_EDGE('',*,*,#617,.T.);
#394=ORIENTED_EDGE('',*,*,#614,.F.);
#395=ORIENTED_EDGE('',*,*,#609,.F.);
#396=ORIENTED_EDGE('',*,*,#613,.T.);
#397=ORIENTED_EDGE('',*,*,#616,.F.);
#398=ORIENTED_EDGE('',*,*,#619,.T.);
#399=ORIENTED_EDGE('',*,*,#622,.T.);
#400=ORIENTED_EDGE('',*,*,#625,.T.);
#401=ORIENTED_EDGE('',*,*,#628,.T.);
#402=ORIENTED_EDGE('',*,*,#631,.T.);
#403=ORIENTED_EDGE('',*,*,#649,.F.);
#404=ORIENTED_EDGE('',*,*,#485,.F.);
#405=ORIENTED_EDGE('',*,*,#650,.F.);
#406=ORIENTED_EDGE('',*,*,#640,.F.);
#407=ORIENTED_EDGE('',*,*,#650,.T.);
#408=ORIENTED_EDGE('',*,*,#490,.F.);
#409=ORIENTED_EDGE('',*,*,#651,.F.);
#410=ORIENTED_EDGE('',*,*,#637,.F.);
#411=ORIENTED_EDGE('',*,*,#649,.T.);
#412=ORIENTED_EDGE('',*,*,#639,.F.);
#413=ORIENTED_EDGE('',*,*,#652,.F.);
#414=ORIENTED_EDGE('',*,*,#481,.F.);
#415=ORIENTED_EDGE('',*,*,#651,.T.);
#416=ORIENTED_EDGE('',*,*,#492,.F.);
#417=ORIENTED_EDGE('',*,*,#652,.T.);
#418=ORIENTED_EDGE('',*,*,#638,.F.);
#419=ORIENTED_EDGE('',*,*,#653,.F.);
#420=ORIENTED_EDGE('',*,*,#474,.F.);
#421=ORIENTED_EDGE('',*,*,#654,.F.);
#422=ORIENTED_EDGE('',*,*,#636,.F.);
#423=ORIENTED_EDGE('',*,*,#654,.T.);
#424=ORIENTED_EDGE('',*,*,#498,.F.);
#425=ORIENTED_EDGE('',*,*,#655,.F.);
#426=ORIENTED_EDGE('',*,*,#633,.F.);
#427=ORIENTED_EDGE('',*,*,#653,.T.);
#428=ORIENTED_EDGE('',*,*,#635,.F.);
#429=ORIENTED_EDGE('',*,*,#656,.F.);
#430=ORIENTED_EDGE('',*,*,#468,.F.);
#431=ORIENTED_EDGE('',*,*,#655,.T.);
#432=ORIENTED_EDGE('',*,*,#495,.F.);
#433=ORIENTED_EDGE('',*,*,#656,.T.);
#434=ORIENTED_EDGE('',*,*,#634,.F.);
#435=ORIENTED_EDGE('',*,*,#657,.F.);
#436=ORIENTED_EDGE('',*,*,#644,.F.);
#437=ORIENTED_EDGE('',*,*,#658,.F.);
#438=ORIENTED_EDGE('',*,*,#524,.F.);
#439=ORIENTED_EDGE('',*,*,#658,.T.);
#440=ORIENTED_EDGE('',*,*,#643,.F.);
#441=ORIENTED_EDGE('',*,*,#659,.F.);
#442=ORIENTED_EDGE('',*,*,#519,.F.);
#443=ORIENTED_EDGE('',*,*,#657,.T.);
#444=ORIENTED_EDGE('',*,*,#532,.F.);
#445=ORIENTED_EDGE('',*,*,#660,.F.);
#446=ORIENTED_EDGE('',*,*,#641,.F.);
#447=ORIENTED_EDGE('',*,*,#659,.T.);
#448=ORIENTED_EDGE('',*,*,#642,.F.);
#449=ORIENTED_EDGE('',*,*,#660,.T.);
#450=ORIENTED_EDGE('',*,*,#515,.F.);
#451=ORIENTED_EDGE('',*,*,#661,.F.);
#452=ORIENTED_EDGE('',*,*,#648,.F.);
#453=ORIENTED_EDGE('',*,*,#662,.F.);
#454=ORIENTED_EDGE('',*,*,#530,.F.);
#455=ORIENTED_EDGE('',*,*,#662,.T.);
#456=ORIENTED_EDGE('',*,*,#647,.F.);
#457=ORIENTED_EDGE('',*,*,#663,.F.);
#458=ORIENTED_EDGE('',*,*,#506,.F.);
#459=ORIENTED_EDGE('',*,*,#661,.T.);
#460=ORIENTED_EDGE('',*,*,#509,.F.);
#461=ORIENTED_EDGE('',*,*,#664,.F.);
#462=ORIENTED_EDGE('',*,*,#645,.F.);
#463=ORIENTED_EDGE('',*,*,#663,.T.);
#464=ORIENTED_EDGE('',*,*,#646,.F.);
#465=ORIENTED_EDGE('',*,*,#664,.T.);
#466=ORIENTED_EDGE('',*,*,#502,.F.);
#467=EDGE_CURVE('',#665,#666,#789,.T.);
#468=EDGE_CURVE('',#665,#667,#790,.T.);
#469=EDGE_CURVE('',#667,#668,#791,.T.);
#470=EDGE_CURVE('',#668,#669,#792,.T.);
#471=EDGE_CURVE('',#669,#670,#793,.T.);
#472=EDGE_CURVE('',#666,#670,#794,.T.);
#473=EDGE_CURVE('',#671,#672,#795,.T.);
#474=EDGE_CURVE('',#671,#665,#796,.T.);
#475=EDGE_CURVE('',#673,#666,#797,.T.);
#476=EDGE_CURVE('',#674,#673,#798,.T.);
#477=EDGE_CURVE('',#675,#674,#799,.T.);
#478=EDGE_CURVE('',#675,#676,#800,.T.);
#479=EDGE_CURVE('',#677,#676,#801,.T.);
#480=EDGE_CURVE('',#678,#677,#802,.T.);
#481=EDGE_CURVE('',#678,#679,#803,.T.);
#482=EDGE_CURVE('',#679,#680,#804,.T.);
#483=EDGE_CURVE('',#680,#672,#805,.T.);
#484=EDGE_CURVE('',#681,#682,#806,.T.);
#485=EDGE_CURVE('',#681,#678,#807,.F.);
#486=EDGE_CURVE('',#677,#683,#808,.T.);
#487=EDGE_CURVE('',#684,#683,#809,.T.);
#488=EDGE_CURVE('',#682,#684,#810,.T.);
#489=EDGE_CURVE('',#685,#686,#811,.T.);
#490=EDGE_CURVE('',#685,#681,#812,.F.);
#491=EDGE_CURVE('',#682,#686,#813,.T.);
#492=EDGE_CURVE('',#679,#685,#814,.F.);
#493=EDGE_CURVE('',#686,#687,#815,.T.);
#494=EDGE_CURVE('',#687,#680,#816,.T.);
#495=EDGE_CURVE('',#667,#688,#817,.F.);
#496=EDGE_CURVE('',#688,#689,#818,.T.);
#497=EDGE_CURVE('',#689,#668,#819,.T.);
#498=EDGE_CURVE('',#688,#671,#820,.T.);
#499=EDGE_CURVE('',#690,#672,#821,.T.);
#500=EDGE_CURVE('',#689,#690,#822,.T.);
#501=EDGE_CURVE('',#691,#692,#823,.T.);
#502=EDGE_CURVE('',#691,#693,#824,.T.);
#503=EDGE_CURVE('',#693,#694,#825,.T.);
#504=EDGE_CURVE('',#692,#694,#826,.T.);
#505=EDGE_CURVE('',#695,#696,#827,.T.);
#506=EDGE_CURVE('',#695,#691,#828,.F.);
#507=EDGE_CURVE('',#692,#697,#829,.T.);
#508=EDGE_CURVE('',#697,#696,#830,.T.);
#509=EDGE_CURVE('',#693,#698,#831,.F.);
#510=EDGE_CURVE('',#698,#699,#832,.T.);
#511=EDGE_CURVE('',#699,#700,#833,.T.);
#512=EDGE_CURVE('',#701,#700,#834,.T.);
#513=EDGE_CURVE('',#694,#701,#835,.T.);
#514=EDGE_CURVE('',#702,#703,#836,.T.);
#515=EDGE_CURVE('',#702,#704,#837,.T.);
#516=EDGE_CURVE('',#704,#705,#838,.T.);
#517=EDGE_CURVE('',#703,#705,#839,.T.);
#518=EDGE_CURVE('',#706,#707,#840,.T.);
#519=EDGE_CURVE('',#706,#702,#841,.T.);
#520=EDGE_CURVE('',#703,#708,#842,.T.);
#521=EDGE_CURVE('',#708,#709,#843,.T.);
#522=EDGE_CURVE('',#707,#709,#844,.T.);
#523=EDGE_CURVE('',#710,#711,#845,.T.);
#524=EDGE_CURVE('',#710,#706,#846,.F.);
#525=EDGE_CURVE('',#707,#712,#847,.T.);
#526=EDGE_CURVE('',#713,#712,#848,.T.);
#527=EDGE_CURVE('',#713,#714,#849,.T.);
#528=EDGE_CURVE('',#714,#715,#850,.T.);
#529=EDGE_CURVE('',#715,#699,#851,.T.);
#530=EDGE_CURVE('',#698,#695,#852,.F.);
#531=EDGE_CURVE('',#711,#696,#853,.T.);
#532=EDGE_CURVE('',#704,#710,#854,.T.);
#533=EDGE_CURVE('',#716,#711,#855,.T.);
#534=EDGE_CURVE('',#705,#716,#856,.T.);
#535=EDGE_CURVE('',#717,#714,#857,.T.);
#536=EDGE_CURVE('',#717,#718,#858,.T.);
#537=EDGE_CURVE('',#718,#715,#859,.T.);
#538=EDGE_CURVE('',#719,#720,#860,.T.);
#539=EDGE_CURVE('',#719,#713,#861,.T.);
#540=EDGE_CURVE('',#720,#712,#862,.T.);
#541=EDGE_CURVE('',#721,#703,#863,.T.);
#542=EDGE_CURVE('',#721,#722,#864,.T.);
#543=EDGE_CURVE('',#722,#708,#865,.T.);
#544=EDGE_CURVE('',#716,#697,#866,.T.);
#545=EDGE_CURVE('',#705,#692,#867,.T.);
#546=EDGE_CURVE('',#687,#690,#868,.T.);
#547=EDGE_CURVE('',#686,#689,#869,.T.);
#548=EDGE_CURVE('',#723,#682,#870,.T.);
#549=EDGE_CURVE('',#724,#684,#871,.T.);
#550=EDGE_CURVE('',#723,#724,#872,.T.);
#551=EDGE_CURVE('',#725,#684,#873,.T.);
#552=EDGE_CURVE('',#675,#725,#874,.T.);
#553=EDGE_CURVE('',#674,#726,#875,.T.);
#554=EDGE_CURVE('',#669,#726,#876,.T.);
#555=EDGE_CURVE('',#669,#727,#877,.T.);
#556=EDGE_CURVE('',#727,#728,#878,.T.);
#557=EDGE_CURVE('',#701,#728,#879,.T.);
#558=EDGE_CURVE('',#717,#701,#880,.T.);
#559=EDGE_CURVE('',#708,#719,#881,.T.);
#560=EDGE_CURVE('',#724,#722,#882,.T.);
#561=EDGE_CURVE('',#729,#729,#53,.T.);
#562=EDGE_CURVE('',#730,#730,#54,.T.);
#563=EDGE_CURVE('',#723,#721,#883,.T.);
#564=EDGE_CURVE('',#694,#731,#884,.T.);
#565=EDGE_CURVE('',#732,#728,#885,.T.);
#566=EDGE_CURVE('',#733,#732,#886,.T.);
#567=EDGE_CURVE('',#731,#733,#887,.T.);
#568=EDGE_CURVE('',#734,#727,#888,.T.);
#569=EDGE_CURVE('',#734,#735,#889,.T.);
#570=EDGE_CURVE('',#735,#736,#890,.T.);
#571=EDGE_CURVE('',#736,#732,#891,.T.);
#572=EDGE_CURVE('',#668,#734,#892,.T.);
#573=EDGE_CURVE('',#737,#737,#55,.T.);
#574=EDGE_CURVE('',#738,#736,#893,.T.);
#575=EDGE_CURVE('',#738,#739,#894,.T.);
#576=EDGE_CURVE('',#740,#739,#56,.F.);
#577=EDGE_CURVE('',#740,#741,#895,.T.);
#578=EDGE_CURVE('',#742,#741,#57,.F.);
#579=EDGE_CURVE('',#743,#742,#896,.T.);
#580=EDGE_CURVE('',#744,#743,#58,.F.);
#581=EDGE_CURVE('',#744,#745,#897,.T.);
#582=EDGE_CURVE('',#745,#733,#898,.T.);
#583=EDGE_CURVE('',#746,#740,#899,.T.);
#584=EDGE_CURVE('',#747,#739,#900,.T.);
#585=EDGE_CURVE('',#747,#746,#59,.T.);
#586=EDGE_CURVE('',#748,#738,#901,.T.);
#587=EDGE_CURVE('',#747,#748,#902,.T.);
#588=EDGE_CURVE('',#735,#748,#903,.T.);
#589=EDGE_CURVE('',#749,#745,#904,.T.);
#590=EDGE_CURVE('',#749,#731,#905,.T.);
#591=EDGE_CURVE('',#750,#744,#906,.T.);
#592=EDGE_CURVE('',#750,#749,#907,.T.);
#593=EDGE_CURVE('',#751,#743,#908,.T.);
#594=EDGE_CURVE('',#751,#750,#60,.T.);
#595=EDGE_CURVE('',#752,#742,#909,.T.);
#596=EDGE_CURVE('',#752,#751,#910,.T.);
#597=EDGE_CURVE('',#753,#741,#911,.T.);
#598=EDGE_CURVE('',#753,#752,#61,.T.);
#599=EDGE_CURVE('',#753,#746,#912,.T.);
#600=EDGE_CURVE('',#754,#676,#913,.T.);
#601=EDGE_CURVE('',#683,#754,#914,.T.);
#602=EDGE_CURVE('',#725,#754,#915,.T.);
#603=EDGE_CURVE('',#755,#673,#916,.T.);
#604=EDGE_CURVE('',#755,#670,#917,.T.);
#605=EDGE_CURVE('',#726,#755,#918,.T.);
#606=EDGE_CURVE('',#718,#700,#919,.T.);
#607=EDGE_CURVE('',#709,#720,#920,.T.);
#608=EDGE_CURVE('',#756,#756,#62,.T.);
#609=EDGE_CURVE('',#757,#758,#921,.T.);
#610=EDGE_CURVE('',#759,#758,#922,.T.);
#611=EDGE_CURVE('',#760,#759,#923,.T.);
#612=EDGE_CURVE('',#760,#757,#924,.T.);
#613=EDGE_CURVE('',#757,#761,#63,.T.);
#614=EDGE_CURVE('',#760,#762,#64,.T.);
#615=EDGE_CURVE('',#762,#761,#925,.T.);
#616=EDGE_CURVE('',#763,#761,#926,.T.);
#617=EDGE_CURVE('',#764,#762,#927,.T.);
#618=EDGE_CURVE('',#764,#763,#928,.T.);
#619=EDGE_CURVE('',#763,#765,#65,.T.);
#620=EDGE_CURVE('',#764,#766,#66,.T.);
#621=EDGE_CURVE('',#766,#765,#929,.T.);
#622=EDGE_CURVE('',#765,#767,#930,.T.);
#623=EDGE_CURVE('',#766,#768,#931,.T.);
#624=EDGE_CURVE('',#768,#767,#932,.T.);
#625=EDGE_CURVE('',#767,#769,#67,.T.);
#626=EDGE_CURVE('',#768,#770,#68,.T.);
#627=EDGE_CURVE('',#770,#769,#933,.T.);
#628=EDGE_CURVE('',#769,#771,#934,.T.);
#629=EDGE_CURVE('',#770,#772,#935,.T.);
#630=EDGE_CURVE('',#772,#771,#936,.T.);
#631=EDGE_CURVE('',#771,#758,#69,.T.);
#632=EDGE_CURVE('',#772,#759,#70,.T.);
#633=EDGE_CURVE('',#773,#774,#937,.F.);
#634=EDGE_CURVE('',#774,#775,#938,.T.);
#635=EDGE_CURVE('',#775,#776,#939,.F.);
#636=EDGE_CURVE('',#776,#773,#940,.F.);
#637=EDGE_CURVE('',#777,#778,#941,.T.);
#638=EDGE_CURVE('',#778,#779,#942,.T.);
#639=EDGE_CURVE('',#779,#780,#943,.F.);
#640=EDGE_CURVE('',#780,#777,#944,.T.);
#641=EDGE_CURVE('',#781,#782,#945,.F.);
#642=EDGE_CURVE('',#782,#783,#946,.F.);
#643=EDGE_CURVE('',#783,#784,#947,.F.);
#644=EDGE_CURVE('',#784,#781,#948,.T.);
#645=EDGE_CURVE('',#785,#786,#949,.T.);
#646=EDGE_CURVE('',#786,#787,#950,.F.);
#647=EDGE_CURVE('',#787,#788,#951,.T.);
#648=EDGE_CURVE('',#788,#785,#952,.T.);
#649=EDGE_CURVE('',#678,#780,#12,.F.);
#650=EDGE_CURVE('',#777,#681,#13,.T.);
#651=EDGE_CURVE('',#778,#685,#14,.T.);
#652=EDGE_CURVE('',#679,#779,#15,.F.);
#653=EDGE_CURVE('',#665,#776,#16,.F.);
#654=EDGE_CURVE('',#773,#671,#17,.T.);
#655=EDGE_CURVE('',#774,#688,#18,.T.);
#656=EDGE_CURVE('',#667,#775,#19,.F.);
#657=EDGE_CURVE('',#781,#710,#20,.T.);
#658=EDGE_CURVE('',#706,#784,#21,.F.);
#659=EDGE_CURVE('',#702,#783,#22,.F.);
#660=EDGE_CURVE('',#782,#704,#23,.T.);
#661=EDGE_CURVE('',#785,#698,#24,.T.);
#662=EDGE_CURVE('',#695,#788,#25,.F.);
#663=EDGE_CURVE('',#691,#787,#26,.F.);
#664=EDGE_CURVE('',#786,#693,#27,.T.);
#665=VERTEX_POINT('',#1928);
#666=VERTEX_POINT('',#1929);
#667=VERTEX_POINT('',#1931);
#668=VERTEX_POINT('',#1933);
#669=VERTEX_POINT('',#1935);
#670=VERTEX_POINT('',#1937);
#671=VERTEX_POINT('',#1941);
#672=VERTEX_POINT('',#1942);
#673=VERTEX_POINT('',#1945);
#674=VERTEX_POINT('',#1947);
#675=VERTEX_POINT('',#1949);
#676=VERTEX_POINT('',#1951);
#677=VERTEX_POINT('',#1953);
#678=VERTEX_POINT('',#1955);
#679=VERTEX_POINT('',#1957);
#680=VERTEX_POINT('',#1959);
#681=VERTEX_POINT('',#1963);
#682=VERTEX_POINT('',#1964);
#683=VERTEX_POINT('',#1967);
#684=VERTEX_POINT('',#1969);
#685=VERTEX_POINT('',#1973);
#686=VERTEX_POINT('',#1974);
#687=VERTEX_POINT('',#1980);
#688=VERTEX_POINT('',#1984);
#689=VERTEX_POINT('',#1986);
#690=VERTEX_POINT('',#1991);
#691=VERTEX_POINT('',#1995);
#692=VERTEX_POINT('',#1996);
#693=VERTEX_POINT('',#1998);
#694=VERTEX_POINT('',#2000);
#695=VERTEX_POINT('',#2004);
#696=VERTEX_POINT('',#2005);
#697=VERTEX_POINT('',#2008);
#698=VERTEX_POINT('',#2012);
#699=VERTEX_POINT('',#2014);
#700=VERTEX_POINT('',#2016);
#701=VERTEX_POINT('',#2018);
#702=VERTEX_POINT('',#2022);
#703=VERTEX_POINT('',#2023);
#704=VERTEX_POINT('',#2025);
#705=VERTEX_POINT('',#2027);
#706=VERTEX_POINT('',#2031);
#707=VERTEX_POINT('',#2032);
#708=VERTEX_POINT('',#2035);
#709=VERTEX_POINT('',#2037);
#710=VERTEX_POINT('',#2041);
#711=VERTEX_POINT('',#2042);
#712=VERTEX_POINT('',#2045);
#713=VERTEX_POINT('',#2047);
#714=VERTEX_POINT('',#2049);
#715=VERTEX_POINT('',#2051);
#716=VERTEX_POINT('',#2058);
#717=VERTEX_POINT('',#2062);
#718=VERTEX_POINT('',#2064);
#719=VERTEX_POINT('',#2068);
#720=VERTEX_POINT('',#2069);
#721=VERTEX_POINT('',#2074);
#722=VERTEX_POINT('',#2076);
#723=VERTEX_POINT('',#2086);
#724=VERTEX_POINT('',#2088);
#725=VERTEX_POINT('',#2092);
#726=VERTEX_POINT('',#2095);
#727=VERTEX_POINT('',#2098);
#728=VERTEX_POINT('',#2100);
#729=VERTEX_POINT('',#2106);
#730=VERTEX_POINT('',#2108);
#731=VERTEX_POINT('',#2113);
#732=VERTEX_POINT('',#2115);
#733=VERTEX_POINT('',#2117);
#734=VERTEX_POINT('',#2121);
#735=VERTEX_POINT('',#2123);
#736=VERTEX_POINT('',#2125);
#737=VERTEX_POINT('',#2131);
#738=VERTEX_POINT('',#2134);
#739=VERTEX_POINT('',#2136);
#740=VERTEX_POINT('',#2138);
#741=VERTEX_POINT('',#2140);
#742=VERTEX_POINT('',#2142);
#743=VERTEX_POINT('',#2144);
#744=VERTEX_POINT('',#2146);
#745=VERTEX_POINT('',#2148);
#746=VERTEX_POINT('',#2152);
#747=VERTEX_POINT('',#2154);
#748=VERTEX_POINT('',#2158);
#749=VERTEX_POINT('',#2164);
#750=VERTEX_POINT('',#2168);
#751=VERTEX_POINT('',#2172);
#752=VERTEX_POINT('',#2176);
#753=VERTEX_POINT('',#2180);
#754=VERTEX_POINT('',#2187);
#755=VERTEX_POINT('',#2194);
#756=VERTEX_POINT('',#2208);
#757=VERTEX_POINT('',#2212);
#758=VERTEX_POINT('',#2213);
#759=VERTEX_POINT('',#2215);
#760=VERTEX_POINT('',#2217);
#761=VERTEX_POINT('',#2221);
#762=VERTEX_POINT('',#2223);
#763=VERTEX_POINT('',#2227);
#764=VERTEX_POINT('',#2229);
#765=VERTEX_POINT('',#2233);
#766=VERTEX_POINT('',#2235);
#767=VERTEX_POINT('',#2239);
#768=VERTEX_POINT('',#2241);
#769=VERTEX_POINT('',#2245);
#770=VERTEX_POINT('',#2247);
#771=VERTEX_POINT('',#2251);
#772=VERTEX_POINT('',#2253);
#773=VERTEX_POINT('',#2260);
#774=VERTEX_POINT('',#2261);
#775=VERTEX_POINT('',#2263);
#776=VERTEX_POINT('',#2265);
#777=VERTEX_POINT('',#2268);
#778=VERTEX_POINT('',#2269);
#779=VERTEX_POINT('',#2271);
#780=VERTEX_POINT('',#2273);
#781=VERTEX_POINT('',#2276);
#782=VERTEX_POINT('',#2277);
#783=VERTEX_POINT('',#2279);
#784=VERTEX_POINT('',#2281);
#785=VERTEX_POINT('',#2284);
#786=VERTEX_POINT('',#2285);
#787=VERTEX_POINT('',#2287);
#788=VERTEX_POINT('',#2289);
#789=LINE('',#1927,#953);
#790=LINE('',#1930,#954);
#791=LINE('',#1932,#955);
#792=LINE('',#1934,#956);
#793=LINE('',#1936,#957);
#794=LINE('',#1938,#958);
#795=LINE('',#1940,#959);
#796=LINE('',#1943,#960);
#797=LINE('',#1944,#961);
#798=LINE('',#1946,#962);
#799=LINE('',#1948,#963);
#800=LINE('',#1950,#964);
#801=LINE('',#1952,#965);
#802=LINE('',#1954,#966);
#803=LINE('',#1956,#967);
#804=LINE('',#1958,#968);
#805=LINE('',#1960,#969);
#806=LINE('',#1962,#970);
#807=LINE('',#1965,#971);
#808=LINE('',#1966,#972);
#809=LINE('',#1968,#973);
#810=LINE('',#1970,#974);
#811=LINE('',#1972,#975);
#812=LINE('',#1975,#976);
#813=LINE('',#1976,#977);
#814=LINE('',#1978,#978);
#815=LINE('',#1979,#979);
#816=LINE('',#1981,#980);
#817=LINE('',#1983,#981);
#818=LINE('',#1985,#982);
#819=LINE('',#1987,#983);
#820=LINE('',#1989,#984);
#821=LINE('',#1990,#985);
#822=LINE('',#1992,#986);
#823=LINE('',#1994,#987);
#824=LINE('',#1997,#988);
#825=LINE('',#1999,#989);
#826=LINE('',#2001,#990);
#827=LINE('',#2003,#991);
#828=LINE('',#2006,#992);
#829=LINE('',#2007,#993);
#830=LINE('',#2009,#994);
#831=LINE('',#2011,#995);
#832=LINE('',#2013,#996);
#833=LINE('',#2015,#997);
#834=LINE('',#2017,#998);
#835=LINE('',#2019,#999);
#836=LINE('',#2021,#1000);
#837=LINE('',#2024,#1001);
#838=LINE('',#2026,#1002);
#839=LINE('',#2028,#1003);
#840=LINE('',#2030,#1004);
#841=LINE('',#2033,#1005);
#842=LINE('',#2034,#1006);
#843=LINE('',#2036,#1007);
#844=LINE('',#2038,#1008);
#845=LINE('',#2040,#1009);
#846=LINE('',#2043,#1010);
#847=LINE('',#2044,#1011);
#848=LINE('',#2046,#1012);
#849=LINE('',#2048,#1013);
#850=LINE('',#2050,#1014);
#851=LINE('',#2052,#1015);
#852=LINE('',#2053,#1016);
#853=LINE('',#2054,#1017);
#854=LINE('',#2056,#1018);
#855=LINE('',#2057,#1019);
#856=LINE('',#2059,#1020);
#857=LINE('',#2061,#1021);
#858=LINE('',#2063,#1022);
#859=LINE('',#2065,#1023);
#860=LINE('',#2067,#1024);
#861=LINE('',#2070,#1025);
#862=LINE('',#2071,#1026);
#863=LINE('',#2073,#1027);
#864=LINE('',#2075,#1028);
#865=LINE('',#2077,#1029);
#866=LINE('',#2079,#1030);
#867=LINE('',#2080,#1031);
#868=LINE('',#2082,#1032);
#869=LINE('',#2083,#1033);
#870=LINE('',#2085,#1034);
#871=LINE('',#2087,#1035);
#872=LINE('',#2089,#1036);
#873=LINE('',#2091,#1037);
#874=LINE('',#2093,#1038);
#875=LINE('',#2094,#1039);
#876=LINE('',#2096,#1040);
#877=LINE('',#2097,#1041);
#878=LINE('',#2099,#1042);
#879=LINE('',#2101,#1043);
#880=LINE('',#2102,#1044);
#881=LINE('',#2103,#1045);
#882=LINE('',#2104,#1046);
#883=LINE('',#2110,#1047);
#884=LINE('',#2112,#1048);
#885=LINE('',#2114,#1049);
#886=LINE('',#2116,#1050);
#887=LINE('',#2118,#1051);
#888=LINE('',#2120,#1052);
#889=LINE('',#2122,#1053);
#890=LINE('',#2124,#1054);
#891=LINE('',#2126,#1055);
#892=LINE('',#2128,#1056);
#893=LINE('',#2133,#1057);
#894=LINE('',#2135,#1058);
#895=LINE('',#2139,#1059);
#896=LINE('',#2143,#1060);
#897=LINE('',#2147,#1061);
#898=LINE('',#2149,#1062);
#899=LINE('',#2151,#1063);
#900=LINE('',#2153,#1064);
#901=LINE('',#2157,#1065);
#902=LINE('',#2159,#1066);
#903=LINE('',#2161,#1067);
#904=LINE('',#2163,#1068);
#905=LINE('',#2165,#1069);
#906=LINE('',#2167,#1070);
#907=LINE('',#2169,#1071);
#908=LINE('',#2171,#1072);
#909=LINE('',#2175,#1073);
#910=LINE('',#2177,#1074);
#911=LINE('',#2179,#1075);
#912=LINE('',#2183,#1076);
#913=LINE('',#2186,#1077);
#914=LINE('',#2188,#1078);
#915=LINE('',#2190,#1079);
#916=LINE('',#2193,#1080);
#917=LINE('',#2195,#1081);
#918=LINE('',#2197,#1082);
#919=LINE('',#2200,#1083);
#920=LINE('',#2203,#1084);
#921=LINE('',#2211,#1085);
#922=LINE('',#2214,#1086);
#923=LINE('',#2216,#1087);
#924=LINE('',#2218,#1088);
#925=LINE('',#2224,#1089);
#926=LINE('',#2226,#1090);
#927=LINE('',#2228,#1091);
#928=LINE('',#2230,#1092);
#929=LINE('',#2236,#1093);
#930=LINE('',#2238,#1094);
#931=LINE('',#2240,#1095);
#932=LINE('',#2242,#1096);
#933=LINE('',#2248,#1097);
#934=LINE('',#2250,#1098);
#935=LINE('',#2252,#1099);
#936=LINE('',#2254,#1100);
#937=LINE('',#2259,#1101);
#938=LINE('',#2262,#1102);
#939=LINE('',#2264,#1103);
#940=LINE('',#2266,#1104);
#941=LINE('',#2267,#1105);
#942=LINE('',#2270,#1106);
#943=LINE('',#2272,#1107);
#944=LINE('',#2274,#1108);
#945=LINE('',#2275,#1109);
#946=LINE('',#2278,#1110);
#947=LINE('',#2280,#1111);
#948=LINE('',#2282,#1112);
#949=LINE('',#2283,#1113);
#950=LINE('',#2286,#1114);
#951=LINE('',#2288,#1115);
#952=LINE('',#2290,#1116);
#953=VECTOR('',#1543,1.);
#954=VECTOR('',#1544,1.);
#955=VECTOR('',#1545,1.);
#956=VECTOR('',#1546,1.);
#957=VECTOR('',#1547,1.);
#958=VECTOR('',#1548,1.);
#959=VECTOR('',#1551,1.);
#960=VECTOR('',#1552,1.);
#961=VECTOR('',#1553,1.);
#962=VECTOR('',#1554,1.);
#963=VECTOR('',#1555,1.);
#964=VECTOR('',#1556,1.);
#965=VECTOR('',#1557,1.);
#966=VECTOR('',#1558,1.);
#967=VECTOR('',#1559,1.);
#968=VECTOR('',#1560,1.);
#969=VECTOR('',#1561,1.);
#970=VECTOR('',#1564,1.);
#971=VECTOR('',#1565,1.);
#972=VECTOR('',#1566,1.);
#973=VECTOR('',#1567,1.);
#974=VECTOR('',#1568,1.);
#975=VECTOR('',#1571,1.);
#976=VECTOR('',#1572,1.);
#977=VECTOR('',#1573,1.);
#978=VECTOR('',#1576,1.);
#979=VECTOR('',#1577,1.);
#980=VECTOR('',#1578,1.);
#981=VECTOR('',#1581,1.);
#982=VECTOR('',#1582,1.);
#983=VECTOR('',#1583,1.);
#984=VECTOR('',#1586,1.);
#985=VECTOR('',#1587,1.);
#986=VECTOR('',#1588,1.);
#987=VECTOR('',#1591,1.);
#988=VECTOR('',#1592,1.);
#989=VECTOR('',#1593,1.);
#990=VECTOR('',#1594,1.);
#991=VECTOR('',#1597,1.);
#992=VECTOR('',#1598,1.);
#993=VECTOR('',#1599,1.);
#994=VECTOR('',#1600,1.);
#995=VECTOR('',#1603,1.);
#996=VECTOR('',#1604,1.);
#997=VECTOR('',#1605,1.);
#998=VECTOR('',#1606,1.);
#999=VECTOR('',#1607,1.);
#1000=VECTOR('',#1610,1.);
#1001=VECTOR('',#1611,1.);
#1002=VECTOR('',#1612,1.);
#1003=VECTOR('',#1613,1.);
#1004=VECTOR('',#1616,1.);
#1005=VECTOR('',#1617,1.);
#1006=VECTOR('',#1618,1.);
#1007=VECTOR('',#1619,1.);
#1008=VECTOR('',#1620,1.);
#1009=VECTOR('',#1623,1.);
#1010=VECTOR('',#1624,1.);
#1011=VECTOR('',#1625,1.);
#1012=VECTOR('',#1626,1.);
#1013=VECTOR('',#1627,1.);
#1014=VECTOR('',#1628,1.);
#1015=VECTOR('',#1629,1.);
#1016=VECTOR('',#1630,1.);
#1017=VECTOR('',#1631,1.);
#1018=VECTOR('',#1634,1.);
#1019=VECTOR('',#1635,1.);
#1020=VECTOR('',#1636,1.);
#1021=VECTOR('',#1639,1.);
#1022=VECTOR('',#1640,1.);
#1023=VECTOR('',#1641,1.);
#1024=VECTOR('',#1644,1.);
#1025=VECTOR('',#1645,1.);
#1026=VECTOR('',#1646,1.);
#1027=VECTOR('',#1649,1.);
#1028=VECTOR('',#1650,1.);
#1029=VECTOR('',#1651,1.);
#1030=VECTOR('',#1654,1.);
#1031=VECTOR('',#1655,1.);
#1032=VECTOR('',#1658,1.);
#1033=VECTOR('',#1659,1.);
#1034=VECTOR('',#1662,1.);
#1035=VECTOR('',#1663,1.);
#1036=VECTOR('',#1664,1.);
#1037=VECTOR('',#1667,1.);
#1038=VECTOR('',#1668,1.);
#1039=VECTOR('',#1669,1.);
#1040=VECTOR('',#1670,1.);
#1041=VECTOR('',#1671,1.);
#1042=VECTOR('',#1672,1.);
#1043=VECTOR('',#1673,1.);
#1044=VECTOR('',#1674,1.);
#1045=VECTOR('',#1675,1.);
#1046=VECTOR('',#1676,1.);
#1047=VECTOR('',#1683,1.);
#1048=VECTOR('',#1686,1.);
#1049=VECTOR('',#1687,1.);
#1050=VECTOR('',#1688,1.);
#1051=VECTOR('',#1689,1.);
#1052=VECTOR('',#1692,1.);
#1053=VECTOR('',#1693,1.);
#1054=VECTOR('',#1694,1.);
#1055=VECTOR('',#1695,1.);
#1056=VECTOR('',#1698,1.);
#1057=VECTOR('',#1705,1.);
#1058=VECTOR('',#1706,1.);
#1059=VECTOR('',#1709,1.);
#1060=VECTOR('',#1712,1.);
#1061=VECTOR('',#1715,1.);
#1062=VECTOR('',#1716,1.);
#1063=VECTOR('',#1719,1.);
#1064=VECTOR('',#1720,1.);
#1065=VECTOR('',#1725,1.);
#1066=VECTOR('',#1726,1.);
#1067=VECTOR('',#1729,1.);
#1068=VECTOR('',#1732,1.);
#1069=VECTOR('',#1733,1.);
#1070=VECTOR('',#1736,1.);
#1071=VECTOR('',#1737,1.);
#1072=VECTOR('',#1740,1.);
#1073=VECTOR('',#1745,1.);
#1074=VECTOR('',#1746,1.);
#1075=VECTOR('',#1749,1.);
#1076=VECTOR('',#1754,1.);
#1077=VECTOR('',#1759,1.);
#1078=VECTOR('',#1760,1.);
#1079=VECTOR('',#1763,1.);
#1080=VECTOR('',#1768,1.);
#1081=VECTOR('',#1769,1.);
#1082=VECTOR('',#1772,1.);
#1083=VECTOR('',#1777,1.);
#1084=VECTOR('',#1782,1.);
#1085=VECTOR('',#1795,1.);
#1086=VECTOR('',#1796,1.);
#1087=VECTOR('',#1797,1.);
#1088=VECTOR('',#1798,1.);
#1089=VECTOR('',#1805,1.);
#1090=VECTOR('',#1808,1.);
#1091=VECTOR('',#1809,1.);
#1092=VECTOR('',#1810,1.);
#1093=VECTOR('',#1817,1.);
#1094=VECTOR('',#1820,1.);
#1095=VECTOR('',#1821,1.);
#1096=VECTOR('',#1822,1.);
#1097=VECTOR('',#1829,1.);
#1098=VECTOR('',#1832,1.);
#1099=VECTOR('',#1833,1.);
#1100=VECTOR('',#1834,1.);
#1101=VECTOR('',#1843,1.);
#1102=VECTOR('',#1844,1.);
#1103=VECTOR('',#1845,1.);
#1104=VECTOR('',#1846,1.);
#1105=VECTOR('',#1847,1.);
#1106=VECTOR('',#1848,1.);
#1107=VECTOR('',#1849,1.);
#1108=VECTOR('',#1850,1.);
#1109=VECTOR('',#1851,1.);
#1110=VECTOR('',#1852,1.);
#1111=VECTOR('',#1853,1.);
#1112=VECTOR('',#1854,1.);
#1113=VECTOR('',#1855,1.);
#1114=VECTOR('',#1856,1.);
#1115=VECTOR('',#1857,1.);
#1116=VECTOR('',#1858,1.);
#1117=EDGE_LOOP('',(#71,#72,#73,#74,#75,#76));
#1118=EDGE_LOOP('',(#77,#78,#79,#80,#81,#82,#83,#84,#85,#86,#87,#88));
#1119=EDGE_LOOP('',(#89,#90,#91,#92,#93,#94));
#1120=EDGE_LOOP('',(#95,#96,#97,#98));
#1121=EDGE_LOOP('',(#99,#100,#101,#102,#103));
#1122=EDGE_LOOP('',(#104,#105,#106,#107));
#1123=EDGE_LOOP('',(#108,#109,#110,#111,#112));
#1124=EDGE_LOOP('',(#113,#114,#115,#116));
#1125=EDGE_LOOP('',(#117,#118,#119,#120,#121));
#1126=EDGE_LOOP('',(#122,#123,#124,#125,#126,#127));
#1127=EDGE_LOOP('',(#128,#129,#130,#131));
#1128=EDGE_LOOP('',(#132,#133,#134,#135,#136,#137));
#1129=EDGE_LOOP('',(#138,#139,#140,#141,#142,#143,#144,#145,#146,#147,#148,
#149));
#1130=EDGE_LOOP('',(#150,#151,#152,#153,#154));
#1131=EDGE_LOOP('',(#155,#156,#157,#158));
#1132=EDGE_LOOP('',(#159,#160,#161,#162));
#1133=EDGE_LOOP('',(#163,#164,#165,#166));
#1134=EDGE_LOOP('',(#167,#168,#169,#170));
#1135=EDGE_LOOP('',(#171,#172,#173,#174));
#1136=EDGE_LOOP('',(#175,#176,#177,#178));
#1137=EDGE_LOOP('',(#179,#180,#181,#182,#183,#184,#185,#186,#187,#188,#189,
#190,#191,#192,#193,#194));
#1138=EDGE_LOOP('',(#195));
#1139=EDGE_LOOP('',(#196));
#1140=EDGE_LOOP('',(#197,#198,#199,#200));
#1141=EDGE_LOOP('',(#201,#202,#203,#204,#205,#206));
#1142=EDGE_LOOP('',(#207,#208,#209,#210,#211,#212));
#1143=EDGE_LOOP('',(#213,#214,#215,#216));
#1144=EDGE_LOOP('',(#217));
#1145=EDGE_LOOP('',(#218));
#1146=EDGE_LOOP('',(#219,#220,#221,#222,#223,#224,#225,#226,#227,#228,#229));
#1147=EDGE_LOOP('',(#230,#231,#232,#233));
#1148=EDGE_LOOP('',(#234,#235,#236,#237));
#1149=EDGE_LOOP('',(#238,#239,#240,#241));
#1150=EDGE_LOOP('',(#242,#243,#244,#245));
#1151=EDGE_LOOP('',(#246,#247,#248,#249));
#1152=EDGE_LOOP('',(#250,#251,#252,#253));
#1153=EDGE_LOOP('',(#254,#255,#256,#257));
#1154=EDGE_LOOP('',(#258,#259,#260,#261));
#1155=EDGE_LOOP('',(#262,#263,#264,#265));
#1156=EDGE_LOOP('',(#266,#267,#268,#269,#270,#271,#272,#273,#274,#275,#276,
#277,#278,#279,#280,#281,#282,#283,#284,#285,#286));
#1157=EDGE_LOOP('',(#287,#288,#289,#290));
#1158=EDGE_LOOP('',(#291,#292,#293,#294));
#1159=EDGE_LOOP('',(#295,#296,#297,#298));
#1160=EDGE_LOOP('',(#299,#300,#301,#302));
#1161=EDGE_LOOP('',(#303,#304,#305,#306));
#1162=EDGE_LOOP('',(#307,#308,#309,#310));
#1163=EDGE_LOOP('',(#311,#312,#313,#314));
#1164=EDGE_LOOP('',(#315,#316,#317,#318));
#1165=EDGE_LOOP('',(#319,#320,#321,#322));
#1166=EDGE_LOOP('',(#323,#324,#325,#326));
#1167=EDGE_LOOP('',(#327,#328,#329,#330));
#1168=EDGE_LOOP('',(#331));
#1169=EDGE_LOOP('',(#332));
#1170=EDGE_LOOP('',(#333));
#1171=EDGE_LOOP('',(#334));
#1172=EDGE_LOOP('',(#335,#336,#337,#338));
#1173=EDGE_LOOP('',(#339,#340,#341,#342));
#1174=EDGE_LOOP('',(#343,#344,#345,#346));
#1175=EDGE_LOOP('',(#347,#348,#349,#350));
#1176=EDGE_LOOP('',(#351,#352,#353,#354));
#1177=EDGE_LOOP('',(#355,#356,#357,#358));
#1178=EDGE_LOOP('',(#359,#360,#361,#362));
#1179=EDGE_LOOP('',(#363,#364,#365,#366));
#1180=EDGE_LOOP('',(#367,#368,#369,#370));
#1181=EDGE_LOOP('',(#371,#372,#373,#374));
#1182=EDGE_LOOP('',(#375,#376,#377,#378));
#1183=EDGE_LOOP('',(#379,#380,#381,#382));
#1184=EDGE_LOOP('',(#383,#384,#385,#386));
#1185=EDGE_LOOP('',(#387,#388,#389,#390,#391,#392,#393,#394));
#1186=EDGE_LOOP('',(#395,#396,#397,#398,#399,#400,#401,#402));
#1187=EDGE_LOOP('',(#403,#404,#405,#406));
#1188=EDGE_LOOP('',(#407,#408,#409,#410));
#1189=EDGE_LOOP('',(#411,#412,#413,#414));
#1190=EDGE_LOOP('',(#415,#416,#417,#418));
#1191=EDGE_LOOP('',(#419,#420,#421,#422));
#1192=EDGE_LOOP('',(#423,#424,#425,#426));
#1193=EDGE_LOOP('',(#427,#428,#429,#430));
#1194=EDGE_LOOP('',(#431,#432,#433,#434));
#1195=EDGE_LOOP('',(#435,#436,#437,#438));
#1196=EDGE_LOOP('',(#439,#440,#441,#442));
#1197=EDGE_LOOP('',(#443,#444,#445,#446));
#1198=EDGE_LOOP('',(#447,#448,#449,#450));
#1199=EDGE_LOOP('',(#451,#452,#453,#454));
#1200=EDGE_LOOP('',(#455,#456,#457,#458));
#1201=EDGE_LOOP('',(#459,#460,#461,#462));
#1202=EDGE_LOOP('',(#463,#464,#465,#466));
#1203=FACE_BOUND('',#1117,.T.);
#1204=FACE_BOUND('',#1118,.T.);
#1205=FACE_BOUND('',#1119,.T.);
#1206=FACE_BOUND('',#1120,.T.);
#1207=FACE_BOUND('',#1121,.T.);
#1208=FACE_BOUND('',#1122,.T.);
#1209=FACE_BOUND('',#1123,.T.);
#1210=FACE_BOUND('',#1124,.T.);
#1211=FACE_BOUND('',#1125,.T.);
#1212=FACE_BOUND('',#1126,.T.);
#1213=FACE_BOUND('',#1127,.T.);
#1214=FACE_BOUND('',#1128,.T.);
#1215=FACE_BOUND('',#1129,.T.);
#1216=FACE_BOUND('',#1130,.T.);
#1217=FACE_BOUND('',#1131,.T.);
#1218=FACE_BOUND('',#1132,.T.);
#1219=FACE_BOUND('',#1133,.T.);
#1220=FACE_BOUND('',#1134,.T.);
#1221=FACE_BOUND('',#1135,.T.);
#1222=FACE_BOUND('',#1136,.T.);
#1223=FACE_BOUND('',#1137,.T.);
#1224=FACE_BOUND('',#1138,.T.);
#1225=FACE_BOUND('',#1139,.T.);
#1226=FACE_BOUND('',#1140,.T.);
#1227=FACE_BOUND('',#1141,.T.);
#1228=FACE_BOUND('',#1142,.T.);
#1229=FACE_BOUND('',#1143,.T.);
#1230=FACE_BOUND('',#1144,.T.);
#1231=FACE_BOUND('',#1145,.T.);
#1232=FACE_BOUND('',#1146,.T.);
#1233=FACE_BOUND('',#1147,.T.);
#1234=FACE_BOUND('',#1148,.T.);
#1235=FACE_BOUND('',#1149,.T.);
#1236=FACE_BOUND('',#1150,.T.);
#1237=FACE_BOUND('',#1151,.T.);
#1238=FACE_BOUND('',#1152,.T.);
#1239=FACE_BOUND('',#1153,.T.);
#1240=FACE_BOUND('',#1154,.T.);
#1241=FACE_BOUND('',#1155,.T.);
#1242=FACE_BOUND('',#1156,.T.);
#1243=FACE_BOUND('',#1157,.T.);
#1244=FACE_BOUND('',#1158,.T.);
#1245=FACE_BOUND('',#1159,.T.);
#1246=FACE_BOUND('',#1160,.T.);
#1247=FACE_BOUND('',#1161,.T.);
#1248=FACE_BOUND('',#1162,.T.);
#1249=FACE_BOUND('',#1163,.T.);
#1250=FACE_BOUND('',#1164,.T.);
#1251=FACE_BOUND('',#1165,.T.);
#1252=FACE_BOUND('',#1166,.T.);
#1253=FACE_BOUND('',#1167,.T.);
#1254=FACE_BOUND('',#1168,.T.);
#1255=FACE_BOUND('',#1169,.T.);
#1256=FACE_BOUND('',#1170,.T.);
#1257=FACE_BOUND('',#1171,.T.);
#1258=FACE_BOUND('',#1172,.T.);
#1259=FACE_BOUND('',#1173,.T.);
#1260=FACE_BOUND('',#1174,.T.);
#1261=FACE_BOUND('',#1175,.T.);
#1262=FACE_BOUND('',#1176,.T.);
#1263=FACE_BOUND('',#1177,.T.);
#1264=FACE_BOUND('',#1178,.T.);
#1265=FACE_BOUND('',#1179,.T.);
#1266=FACE_BOUND('',#1180,.T.);
#1267=FACE_BOUND('',#1181,.T.);
#1268=FACE_BOUND('',#1182,.T.);
#1269=FACE_BOUND('',#1183,.T.);
#1270=FACE_BOUND('',#1184,.T.);
#1271=FACE_BOUND('',#1185,.T.);
#1272=FACE_BOUND('',#1186,.T.);
#1273=FACE_BOUND('',#1187,.T.);
#1274=FACE_BOUND('',#1188,.T.);
#1275=FACE_BOUND('',#1189,.T.);
#1276=FACE_BOUND('',#1190,.T.);
#1277=FACE_BOUND('',#1191,.T.);
#1278=FACE_BOUND('',#1192,.T.);
#1279=FACE_BOUND('',#1193,.T.);
#1280=FACE_BOUND('',#1194,.T.);
#1281=FACE_BOUND('',#1195,.T.);
#1282=FACE_BOUND('',#1196,.T.);
#1283=FACE_BOUND('',#1197,.T.);
#1284=FACE_BOUND('',#1198,.T.);
#1285=FACE_BOUND('',#1199,.T.);
#1286=FACE_BOUND('',#1200,.T.);
#1287=FACE_BOUND('',#1201,.T.);
#1288=FACE_BOUND('',#1202,.T.);
#1289=PLANE('',#1429);
#1290=PLANE('',#1430);
#1291=PLANE('',#1431);
#1292=PLANE('',#1432);
#1293=PLANE('',#1433);
#1294=PLANE('',#1434);
#1295=PLANE('',#1435);
#1296=PLANE('',#1436);
#1297=PLANE('',#1437);
#1298=PLANE('',#1438);
#1299=PLANE('',#1439);
#1300=PLANE('',#1440);
#1301=PLANE('',#1441);
#1302=PLANE('',#1442);
#1303=PLANE('',#1443);
#1304=PLANE('',#1444);
#1305=PLANE('',#1445);
#1306=PLANE('',#1446);
#1307=PLANE('',#1447);
#1308=PLANE('',#1448);
#1309=PLANE('',#1449);
#1310=PLANE('',#1452);
#1311=PLANE('',#1453);
#1312=PLANE('',#1454);
#1313=PLANE('',#1455);
#1314=PLANE('',#1458);
#1315=PLANE('',#1464);
#1316=PLANE('',#1465);
#1317=PLANE('',#1466);
#1318=PLANE('',#1467);
#1319=PLANE('',#1470);
#1320=PLANE('',#1473);
#1321=PLANE('',#1474);
#1322=PLANE('',#1475);
#1323=PLANE('',#1476);
#1324=PLANE('',#1477);
#1325=PLANE('',#1478);
#1326=PLANE('',#1479);
#1327=PLANE('',#1480);
#1328=PLANE('',#1481);
#1329=PLANE('',#1482);
#1330=PLANE('',#1483);
#1331=PLANE('',#1484);
#1332=PLANE('',#1485);
#1333=PLANE('',#1488);
#1334=PLANE('',#1489);
#1335=PLANE('',#1493);
#1336=PLANE('',#1497);
#1337=PLANE('',#1501);
#1338=PLANE('',#1505);
#1339=PLANE('',#1506);
#1340=ADVANCED_FACE('',(#1203),#1289,.T.);
#1341=ADVANCED_FACE('',(#1204),#1290,.T.);
#1342=ADVANCED_FACE('',(#1205),#1291,.F.);
#1343=ADVANCED_FACE('',(#1206),#1292,.F.);
#1344=ADVANCED_FACE('',(#1207),#1293,.F.);
#1345=ADVANCED_FACE('',(#1208),#1294,.F.);
#1346=ADVANCED_FACE('',(#1209),#1295,.T.);
#1347=ADVANCED_FACE('',(#1210),#1296,.T.);
#1348=ADVANCED_FACE('',(#1211),#1297,.F.);
#1349=ADVANCED_FACE('',(#1212),#1298,.F.);
#1350=ADVANCED_FACE('',(#1213),#1299,.T.);
#1351=ADVANCED_FACE('',(#1214),#1300,.T.);
#1352=ADVANCED_FACE('',(#1215),#1301,.F.);
#1353=ADVANCED_FACE('',(#1216),#1302,.T.);
#1354=ADVANCED_FACE('',(#1217),#1303,.F.);
#1355=ADVANCED_FACE('',(#1218),#1304,.T.);
#1356=ADVANCED_FACE('',(#1219),#1305,.F.);
#1357=ADVANCED_FACE('',(#1220),#1306,.F.);
#1358=ADVANCED_FACE('',(#1221),#1307,.T.);
#1359=ADVANCED_FACE('',(#1222),#1308,.T.);
#1360=ADVANCED_FACE('',(#1223,#1224,#1225),#1309,.F.);
#1361=ADVANCED_FACE('',(#1226),#1310,.F.);
#1362=ADVANCED_FACE('',(#1227),#1311,.F.);
#1363=ADVANCED_FACE('',(#1228),#1312,.T.);
#1364=ADVANCED_FACE('',(#1229),#1313,.T.);
#1365=ADVANCED_FACE('',(#1230,#1231),#28,.F.);
#1366=ADVANCED_FACE('',(#1232),#1314,.T.);
#1367=ADVANCED_FACE('',(#1233),#29,.F.);
#1368=ADVANCED_FACE('',(#1234),#1315,.F.);
#1369=ADVANCED_FACE('',(#1235),#1316,.T.);
#1370=ADVANCED_FACE('',(#1236),#1317,.T.);
#1371=ADVANCED_FACE('',(#1237),#1318,.T.);
#1372=ADVANCED_FACE('',(#1238),#30,.F.);
#1373=ADVANCED_FACE('',(#1239),#1319,.T.);
#1374=ADVANCED_FACE('',(#1240),#31,.F.);
#1375=ADVANCED_FACE('',(#1241),#1320,.F.);
#1376=ADVANCED_FACE('',(#1242),#1321,.T.);
#1377=ADVANCED_FACE('',(#1243),#1322,.F.);
#1378=ADVANCED_FACE('',(#1244),#1323,.F.);
#1379=ADVANCED_FACE('',(#1245),#1324,.F.);
#1380=ADVANCED_FACE('',(#1246),#1325,.F.);
#1381=ADVANCED_FACE('',(#1247),#1326,.F.);
#1382=ADVANCED_FACE('',(#1248),#1327,.T.);
#1383=ADVANCED_FACE('',(#1249),#1328,.T.);
#1384=ADVANCED_FACE('',(#1250),#1329,.F.);
#1385=ADVANCED_FACE('',(#1251),#1330,.T.);
#1386=ADVANCED_FACE('',(#1252),#1331,.F.);
#1387=ADVANCED_FACE('',(#1253,#1254),#1332,.T.);
#1388=ADVANCED_FACE('',(#1255,#1256),#32,.F.);
#1389=ADVANCED_FACE('',(#1257,#1258),#1333,.T.);
#1390=ADVANCED_FACE('',(#1259),#1334,.F.);
#1391=ADVANCED_FACE('',(#1260),#33,.T.);
#1392=ADVANCED_FACE('',(#1261),#1335,.F.);
#1393=ADVANCED_FACE('',(#1262),#34,.T.);
#1394=ADVANCED_FACE('',(#1263),#1336,.T.);
#1395=ADVANCED_FACE('',(#1264),#35,.T.);
#1396=ADVANCED_FACE('',(#1265),#1337,.T.);
#1397=ADVANCED_FACE('',(#1266),#36,.T.);
#1398=ADVANCED_FACE('',(#1267,#1268,#1269,#1270,#1271),#1338,.F.);
#1399=ADVANCED_FACE('',(#1272),#1339,.T.);
#1400=ADVANCED_FACE('',(#1273),#37,.F.);
#1401=ADVANCED_FACE('',(#1274),#38,.F.);
#1402=ADVANCED_FACE('',(#1275),#39,.F.);
#1403=ADVANCED_FACE('',(#1276),#40,.F.);
#1404=ADVANCED_FACE('',(#1277),#41,.F.);
#1405=ADVANCED_FACE('',(#1278),#42,.F.);
#1406=ADVANCED_FACE('',(#1279),#43,.F.);
#1407=ADVANCED_FACE('',(#1280),#44,.F.);
#1408=ADVANCED_FACE('',(#1281),#45,.F.);
#1409=ADVANCED_FACE('',(#1282),#46,.F.);
#1410=ADVANCED_FACE('',(#1283),#47,.F.);
#1411=ADVANCED_FACE('',(#1284),#48,.F.);
#1412=ADVANCED_FACE('',(#1285),#49,.F.);
#1413=ADVANCED_FACE('',(#1286),#50,.F.);
#1414=ADVANCED_FACE('',(#1287),#51,.F.);
#1415=ADVANCED_FACE('',(#1288),#52,.F.);
#1416=CLOSED_SHELL('',(#1340,#1341,#1342,#1343,#1344,#1345,#1346,#1347,
#1348,#1349,#1350,#1351,#1352,#1353,#1354,#1355,#1356,#1357,#1358,#1359,
#1360,#1361,#1362,#1363,#1364,#1365,#1366,#1367,#1368,#1369,#1370,#1371,
#1372,#1373,#1374,#1375,#1376,#1377,#1378,#1379,#1380,#1381,#1382,#1383,
#1384,#1385,#1386,#1387,#1388,#1389,#1390,#1391,#1392,#1393,#1394,#1395,
#1396,#1397,#1398,#1399,#1400,#1401,#1402,#1403,#1404,#1405,#1406,#1407,
#1408,#1409,#1410,#1411,#1412,#1413,#1414,#1415));
#1417=STYLED_ITEM('',(#1418),#1425);
#1418=PRESENTATION_STYLE_ASSIGNMENT((#1419));
#1419=SURFACE_STYLE_USAGE(.BOTH.,#1420);
#1420=SURFACE_SIDE_STYLE('',(#1421));
#1421=SURFACE_STYLE_FILL_AREA(#1422);
#1422=FILL_AREA_STYLE('',(#1423));
#1423=FILL_AREA_STYLE_COLOUR('',#1424);
#1424=COLOUR_RGB('',0.615686274509804,0.811764705882353,0.929411764705882);
#1425=MANIFOLD_SOLID_BREP('Battery Holder',#1416);
#1426=SHAPE_DEFINITION_REPRESENTATION(#2330,#1427);
#1427=SHAPE_REPRESENTATION('Battery Holder',(#1428),#2325);
#1428=AXIS2_PLACEMENT_3D('',#1925,#1539,#1540);
#1429=AXIS2_PLACEMENT_3D('',#1926,#1541,#1542);
#1430=AXIS2_PLACEMENT_3D('',#1939,#1549,#1550);
#1431=AXIS2_PLACEMENT_3D('',#1961,#1562,#1563);
#1432=AXIS2_PLACEMENT_3D('',#1971,#1569,#1570);
#1433=AXIS2_PLACEMENT_3D('',#1977,#1574,#1575);
#1434=AXIS2_PLACEMENT_3D('',#1982,#1579,#1580);
#1435=AXIS2_PLACEMENT_3D('',#1988,#1584,#1585);
#1436=AXIS2_PLACEMENT_3D('',#1993,#1589,#1590);
#1437=AXIS2_PLACEMENT_3D('',#2002,#1595,#1596);
#1438=AXIS2_PLACEMENT_3D('',#2010,#1601,#1602);
#1439=AXIS2_PLACEMENT_3D('',#2020,#1608,#1609);
#1440=AXIS2_PLACEMENT_3D('',#2029,#1614,#1615);
#1441=AXIS2_PLACEMENT_3D('',#2039,#1621,#1622);
#1442=AXIS2_PLACEMENT_3D('',#2055,#1632,#1633);
#1443=AXIS2_PLACEMENT_3D('',#2060,#1637,#1638);
#1444=AXIS2_PLACEMENT_3D('',#2066,#1642,#1643);
#1445=AXIS2_PLACEMENT_3D('',#2072,#1647,#1648);
#1446=AXIS2_PLACEMENT_3D('',#2078,#1652,#1653);
#1447=AXIS2_PLACEMENT_3D('',#2081,#1656,#1657);
#1448=AXIS2_PLACEMENT_3D('',#2084,#1660,#1661);
#1449=AXIS2_PLACEMENT_3D('',#2090,#1665,#1666);
#1450=AXIS2_PLACEMENT_3D('',#2105,#1677,#1678);
#1451=AXIS2_PLACEMENT_3D('',#2107,#1679,#1680);
#1452=AXIS2_PLACEMENT_3D('',#2109,#1681,#1682);
#1453=AXIS2_PLACEMENT_3D('',#2111,#1684,#1685);
#1454=AXIS2_PLACEMENT_3D('',#2119,#1690,#1691);
#1455=AXIS2_PLACEMENT_3D('',#2127,#1696,#1697);
#1456=AXIS2_PLACEMENT_3D('',#2129,#1699,#1700);
#1457=AXIS2_PLACEMENT_3D('',#2130,#1701,#1702);
#1458=AXIS2_PLACEMENT_3D('',#2132,#1703,#1704);
#1459=AXIS2_PLACEMENT_3D('',#2137,#1707,#1708);
#1460=AXIS2_PLACEMENT_3D('',#2141,#1710,#1711);
#1461=AXIS2_PLACEMENT_3D('',#2145,#1713,#1714);
#1462=AXIS2_PLACEMENT_3D('',#2150,#1717,#1718);
#1463=AXIS2_PLACEMENT_3D('',#2155,#1721,#1722);
#1464=AXIS2_PLACEMENT_3D('',#2156,#1723,#1724);
#1465=AXIS2_PLACEMENT_3D('',#2160,#1727,#1728);
#1466=AXIS2_PLACEMENT_3D('',#2162,#1730,#1731);
#1467=AXIS2_PLACEMENT_3D('',#2166,#1734,#1735);
#1468=AXIS2_PLACEMENT_3D('',#2170,#1738,#1739);
#1469=AXIS2_PLACEMENT_3D('',#2173,#1741,#1742);
#1470=AXIS2_PLACEMENT_3D('',#2174,#1743,#1744);
#1471=AXIS2_PLACEMENT_3D('',#2178,#1747,#1748);
#1472=AXIS2_PLACEMENT_3D('',#2181,#1750,#1751);
#1473=AXIS2_PLACEMENT_3D('',#2182,#1752,#1753);
#1474=AXIS2_PLACEMENT_3D('',#2184,#1755,#1756);
#1475=AXIS2_PLACEMENT_3D('',#2185,#1757,#1758);
#1476=AXIS2_PLACEMENT_3D('',#2189,#1761,#1762);
#1477=AXIS2_PLACEMENT_3D('',#2191,#1764,#1765);
#1478=AXIS2_PLACEMENT_3D('',#2192,#1766,#1767);
#1479=AXIS2_PLACEMENT_3D('',#2196,#1770,#1771);
#1480=AXIS2_PLACEMENT_3D('',#2198,#1773,#1774);
#1481=AXIS2_PLACEMENT_3D('',#2199,#1775,#1776);
#1482=AXIS2_PLACEMENT_3D('',#2201,#1778,#1779);
#1483=AXIS2_PLACEMENT_3D('',#2202,#1780,#1781);
#1484=AXIS2_PLACEMENT_3D('',#2204,#1783,#1784);
#1485=AXIS2_PLACEMENT_3D('',#2205,#1785,#1786);
#1486=AXIS2_PLACEMENT_3D('',#2206,#1787,#1788);
#1487=AXIS2_PLACEMENT_3D('',#2207,#1789,#1790);
#1488=AXIS2_PLACEMENT_3D('',#2209,#1791,#1792);
#1489=AXIS2_PLACEMENT_3D('',#2210,#1793,#1794);
#1490=AXIS2_PLACEMENT_3D('',#2219,#1799,#1800);
#1491=AXIS2_PLACEMENT_3D('',#2220,#1801,#1802);
#1492=AXIS2_PLACEMENT_3D('',#2222,#1803,#1804);
#1493=AXIS2_PLACEMENT_3D('',#2225,#1806,#1807);
#1494=AXIS2_PLACEMENT_3D('',#2231,#1811,#1812);
#1495=AXIS2_PLACEMENT_3D('',#2232,#1813,#1814);
#1496=AXIS2_PLACEMENT_3D('',#2234,#1815,#1816);
#1497=AXIS2_PLACEMENT_3D('',#2237,#1818,#1819);
#1498=AXIS2_PLACEMENT_3D('',#2243,#1823,#1824);
#1499=AXIS2_PLACEMENT_3D('',#2244,#1825,#1826);
#1500=AXIS2_PLACEMENT_3D('',#2246,#1827,#1828);
#1501=AXIS2_PLACEMENT_3D('',#2249,#1830,#1831);
#1502=AXIS2_PLACEMENT_3D('',#2255,#1835,#1836);
#1503=AXIS2_PLACEMENT_3D('',#2256,#1837,#1838);
#1504=AXIS2_PLACEMENT_3D('',#2257,#1839,#1840);
#1505=AXIS2_PLACEMENT_3D('',#2258,#1841,#1842);
#1506=AXIS2_PLACEMENT_3D('',#2291,#1859,#1860);
#1507=AXIS2_PLACEMENT_3D('',#2292,#1861,#1862);
#1508=AXIS2_PLACEMENT_3D('',#2293,#1863,#1864);
#1509=AXIS2_PLACEMENT_3D('',#2294,#1865,#1866);
#1510=AXIS2_PLACEMENT_3D('',#2295,#1867,#1868);
#1511=AXIS2_PLACEMENT_3D('',#2296,#1869,#1870);
#1512=AXIS2_PLACEMENT_3D('',#2297,#1871,#1872);
#1513=AXIS2_PLACEMENT_3D('',#2298,#1873,#1874);
#1514=AXIS2_PLACEMENT_3D('',#2299,#1875,#1876);
#1515=AXIS2_PLACEMENT_3D('',#2300,#1877,#1878);
#1516=AXIS2_PLACEMENT_3D('',#2301,#1879,#1880);
#1517=AXIS2_PLACEMENT_3D('',#2302,#1881,#1882);
#1518=AXIS2_PLACEMENT_3D('',#2303,#1883,#1884);
#1519=AXIS2_PLACEMENT_3D('',#2304,#1885,#1886);
#1520=AXIS2_PLACEMENT_3D('',#2305,#1887,#1888);
#1521=AXIS2_PLACEMENT_3D('',#2306,#1889,#1890);
#1522=AXIS2_PLACEMENT_3D('',#2307,#1891,#1892);
#1523=AXIS2_PLACEMENT_3D('',#2308,#1893,#1894);
#1524=AXIS2_PLACEMENT_3D('',#2309,#1895,#1896);
#1525=AXIS2_PLACEMENT_3D('',#2310,#1897,#1898);
#1526=AXIS2_PLACEMENT_3D('',#2311,#1899,#1900);
#1527=AXIS2_PLACEMENT_3D('',#2312,#1901,#1902);
#1528=AXIS2_PLACEMENT_3D('',#2313,#1903,#1904);
#1529=AXIS2_PLACEMENT_3D('',#2314,#1905,#1906);
#1530=AXIS2_PLACEMENT_3D('',#2315,#1907,#1908);
#1531=AXIS2_PLACEMENT_3D('',#2316,#1909,#1910);
#1532=AXIS2_PLACEMENT_3D('',#2317,#1911,#1912);
#1533=AXIS2_PLACEMENT_3D('',#2318,#1913,#1914);
#1534=AXIS2_PLACEMENT_3D('',#2319,#1915,#1916);
#1535=AXIS2_PLACEMENT_3D('',#2320,#1917,#1918);
#1536=AXIS2_PLACEMENT_3D('',#2321,#1919,#1920);
#1537=AXIS2_PLACEMENT_3D('',#2322,#1921,#1922);
#1538=AXIS2_PLACEMENT_3D('',#2323,#1923,#1924);
#1539=DIRECTION('',(0.,0.,1.));
#1540=DIRECTION('',(1.,0.,0.));
#1541=DIRECTION('',(0.,1.,0.));
#1542=DIRECTION('',(0.,0.,1.));
#1543=DIRECTION('',(0.,0.,-1.));
#1544=DIRECTION('',(1.,0.,0.));
#1545=DIRECTION('',(0.,0.,-1.));
#1546=DIRECTION('',(0.,0.,-1.));
#1547=DIRECTION('',(0.,0.,-1.));
#1548=DIRECTION('',(1.,0.,0.));
#1549=DIRECTION('',(-1.,0.,0.));
#1550=DIRECTION('',(0.,0.,1.));
#1551=DIRECTION('',(0.,0.,-1.));
#1552=DIRECTION('',(0.,1.,0.));
#1553=DIRECTION('',(0.,1.,0.));
#1554=DIRECTION('',(0.,0.,-1.));
#1555=DIRECTION('',(0.,1.,0.));
#1556=DIRECTION('',(0.,0.,-1.));
#1557=DIRECTION('',(0.,1.,0.));
#1558=DIRECTION('',(0.,0.,-1.));
#1559=DIRECTION('',(0.,1.,0.));
#1560=DIRECTION('',(0.,0.,-1.));
#1561=DIRECTION('',(0.,1.,0.));
#1562=DIRECTION('',(0.,1.,0.));
#1563=DIRECTION('',(0.,0.,1.));
#1564=DIRECTION('',(0.,0.,-1.));
#1565=DIRECTION('',(1.,0.,0.));
#1566=DIRECTION('',(1.,0.,0.));
#1567=DIRECTION('',(0.,0.,-1.));
#1568=DIRECTION('',(0.,0.,-1.));
#1569=DIRECTION('',(-1.,0.,0.));
#1570=DIRECTION('',(0.,0.,1.));
#1571=DIRECTION('',(0.,0.,-1.));
#1572=DIRECTION('',(0.,1.,0.));
#1573=DIRECTION('',(0.,1.,0.));
#1574=DIRECTION('',(0.,-1.,0.));
#1575=DIRECTION('',(0.,0.,-1.));
#1576=DIRECTION('',(-1.,0.,0.));
#1577=DIRECTION('',(0.,0.,-1.));
#1578=DIRECTION('',(-1.,0.,0.));
#1579=DIRECTION('',(-1.,0.,0.));
#1580=DIRECTION('',(0.,0.,1.));
#1581=DIRECTION('',(0.,1.,0.));
#1582=DIRECTION('',(0.,0.,-1.));
#1583=DIRECTION('',(0.,1.,0.));
#1584=DIRECTION('',(0.,-1.,0.));
#1585=DIRECTION('',(0.,0.,-1.));
#1586=DIRECTION('',(-1.,0.,0.));
#1587=DIRECTION('',(-1.,0.,0.));
#1588=DIRECTION('',(0.,0.,-1.));
#1589=DIRECTION('',(-1.,0.,0.));
#1590=DIRECTION('',(0.,0.,1.));
#1591=DIRECTION('',(0.,0.,-1.));
#1592=DIRECTION('',(0.,1.,0.));
#1593=DIRECTION('',(0.,0.,-1.));
#1594=DIRECTION('',(0.,1.,0.));
#1595=DIRECTION('',(0.,1.,0.));
#1596=DIRECTION('',(0.,0.,1.));
#1597=DIRECTION('',(0.,0.,-1.));
#1598=DIRECTION('',(1.,0.,0.));
#1599=DIRECTION('',(0.,0.,-1.));
#1600=DIRECTION('',(1.,0.,0.));
#1601=DIRECTION('',(0.,-1.,0.));
#1602=DIRECTION('',(0.,0.,-1.));
#1603=DIRECTION('',(-1.,0.,0.));
#1604=DIRECTION('',(0.,0.,-1.));
#1605=DIRECTION('',(-1.,0.,0.));
#1606=DIRECTION('',(0.,0.,-1.));
#1607=DIRECTION('',(0.,0.,-1.));
#1608=DIRECTION('',(-1.,0.,0.));
#1609=DIRECTION('',(0.,0.,1.));
#1610=DIRECTION('',(0.,0.,-1.));
#1611=DIRECTION('',(0.,1.,0.));
#1612=DIRECTION('',(0.,0.,-1.));
#1613=DIRECTION('',(0.,1.,0.));
#1614=DIRECTION('',(0.,-1.,0.));
#1615=DIRECTION('',(0.,0.,-1.));
#1616=DIRECTION('',(0.,0.,-1.));
#1617=DIRECTION('',(-1.,0.,0.));
#1618=DIRECTION('',(0.,0.,-1.));
#1619=DIRECTION('',(0.,0.,-1.));
#1620=DIRECTION('',(-1.,0.,0.));
#1621=DIRECTION('',(-1.,0.,0.));
#1622=DIRECTION('',(0.,0.,1.));
#1623=DIRECTION('',(0.,0.,-1.));
#1624=DIRECTION('',(0.,1.,0.));
#1625=DIRECTION('',(0.,1.,0.));
#1626=DIRECTION('',(0.,0.,-1.));
#1627=DIRECTION('',(0.,1.,0.));
#1628=DIRECTION('',(0.,0.,-1.));
#1629=DIRECTION('',(0.,1.,0.));
#1630=DIRECTION('',(0.,1.,0.));
#1631=DIRECTION('',(0.,1.,0.));
#1632=DIRECTION('',(0.,1.,0.));
#1633=DIRECTION('',(0.,0.,1.));
#1634=DIRECTION('',(1.,0.,0.));
#1635=DIRECTION('',(1.,0.,0.));
#1636=DIRECTION('',(0.,0.,-1.));
#1637=DIRECTION('',(0.,1.,0.));
#1638=DIRECTION('',(0.,0.,1.));
#1639=DIRECTION('',(1.,0.,0.));
#1640=DIRECTION('',(0.,0.,-1.));
#1641=DIRECTION('',(1.,0.,0.));
#1642=DIRECTION('',(0.,1.,0.));
#1643=DIRECTION('',(0.,0.,1.));
#1644=DIRECTION('',(0.,0.,-1.));
#1645=DIRECTION('',(1.,0.,0.));
#1646=DIRECTION('',(1.,0.,0.));
#1647=DIRECTION('',(-1.,0.,0.));
#1648=DIRECTION('',(0.,0.,1.));
#1649=DIRECTION('',(0.,1.,0.));
#1650=DIRECTION('',(0.,0.,-1.));
#1651=DIRECTION('',(0.,1.,0.));
#1652=DIRECTION('',(-1.,0.,0.));
#1653=DIRECTION('',(0.,0.,1.));
#1654=DIRECTION('',(0.,1.,0.));
#1655=DIRECTION('',(0.,1.,0.));
#1656=DIRECTION('',(-1.,0.,0.));
#1657=DIRECTION('',(0.,0.,1.));
#1658=DIRECTION('',(0.,1.,0.));
#1659=DIRECTION('',(0.,1.,0.));
#1660=DIRECTION('',(-1.,0.,0.));
#1661=DIRECTION('',(0.,0.,1.));
#1662=DIRECTION('',(0.,1.,0.));
#1663=DIRECTION('',(0.,1.,0.));
#1664=DIRECTION('',(0.,0.,-1.));
#1665=DIRECTION('',(0.,0.,1.));
#1666=DIRECTION('',(1.,0.,0.));
#1667=DIRECTION('',(0.,-1.,0.));
#1668=DIRECTION('',(1.,0.,0.));
#1669=DIRECTION('',(1.,0.,0.));
#1670=DIRECTION('',(0.,-1.,0.));
#1671=DIRECTION('',(0.,1.,0.));
#1672=DIRECTION('',(1.,0.,0.));
#1673=DIRECTION('',(0.,1.,0.));
#1674=DIRECTION('',(0.,1.,0.));
#1675=DIRECTION('',(0.,1.,0.));
#1676=DIRECTION('',(1.,0.,0.));
#1677=DIRECTION('',(0.,0.,-1.));
#1678=DIRECTION('',(1.,0.,0.));
#1679=DIRECTION('',(0.,0.,1.));
#1680=DIRECTION('',(1.,0.,0.));
#1681=DIRECTION('',(0.,1.,0.));
#1682=DIRECTION('',(0.,0.,1.));
#1683=DIRECTION('',(1.,0.,0.));
#1684=DIRECTION('',(-1.,0.,0.));
#1685=DIRECTION('',(0.,0.,1.));
#1686=DIRECTION('',(0.,1.,0.));
#1687=DIRECTION('',(0.,0.,-1.));
#1688=DIRECTION('',(0.,1.,0.));
#1689=DIRECTION('',(0.,0.,-1.));
#1690=DIRECTION('',(0.,1.,0.));
#1691=DIRECTION('',(0.,0.,1.));
#1692=DIRECTION('',(0.,0.,-1.));
#1693=DIRECTION('',(1.,0.,0.));
#1694=DIRECTION('',(0.,0.,-1.));
#1695=DIRECTION('',(1.,0.,0.));
#1696=DIRECTION('',(-1.,0.,0.));
#1697=DIRECTION('',(0.,0.,1.));
#1698=DIRECTION('',(0.,1.,0.));
#1699=DIRECTION('',(0.,0.,-1.));
#1700=DIRECTION('',(-1.,0.,0.));
#1701=DIRECTION('',(0.,0.,-1.));
#1702=DIRECTION('',(1.,0.,0.));
#1703=DIRECTION('',(0.,0.,1.));
#1704=DIRECTION('',(1.,0.,0.));
#1705=DIRECTION('',(0.,1.,0.));
#1706=DIRECTION('',(-1.,0.,0.));
#1707=DIRECTION('',(0.,0.,1.));
#1708=DIRECTION('',(1.,0.,0.));
#1709=DIRECTION('',(-7.2280144832367E-17,-1.,0.));
#1710=DIRECTION('',(0.,0.,1.));
#1711=DIRECTION('',(1.,0.,0.));
#1712=DIRECTION('',(-1.,0.,0.));
#1713=DIRECTION('',(0.,0.,1.));
#1714=DIRECTION('',(1.,0.,0.));
#1715=DIRECTION('',(0.,1.,0.));
#1716=DIRECTION('',(1.,0.,0.));
#1717=DIRECTION('',(0.,0.,-1.));
#1718=DIRECTION('',(-1.,0.,0.));
#1719=DIRECTION('',(0.,0.,-1.));
#1720=DIRECTION('',(0.,0.,-1.));
#1721=DIRECTION('',(0.,0.,1.));
#1722=DIRECTION('',(1.,0.,0.));
#1723=DIRECTION('',(0.,1.,0.));
#1724=DIRECTION('',(0.,0.,1.));
#1725=DIRECTION('',(0.,0.,-1.));
#1726=DIRECTION('',(1.,0.,0.));
#1727=DIRECTION('',(1.,0.,0.));
#1728=DIRECTION('',(0.,0.,-1.));
#1729=DIRECTION('',(0.,-1.,0.));
#1730=DIRECTION('',(0.,1.,0.));
#1731=DIRECTION('',(0.,0.,1.));
#1732=DIRECTION('',(0.,0.,-1.));
#1733=DIRECTION('',(1.,0.,0.));
#1734=DIRECTION('',(-1.,0.,0.));
#1735=DIRECTION('',(0.,0.,1.));
#1736=DIRECTION('',(0.,0.,-1.));
#1737=DIRECTION('',(0.,1.,0.));
#1738=DIRECTION('',(0.,0.,-1.));
#1739=DIRECTION('',(-1.,0.,0.));
#1740=DIRECTION('',(0.,0.,-1.));
#1741=DIRECTION('',(0.,0.,1.));
#1742=DIRECTION('',(1.,0.,0.));
#1743=DIRECTION('',(0.,1.,0.));
#1744=DIRECTION('',(0.,0.,1.));
#1745=DIRECTION('',(0.,0.,-1.));
#1746=DIRECTION('',(1.,0.,0.));
#1747=DIRECTION('',(0.,0.,-1.));
#1748=DIRECTION('',(-1.,0.,0.));
#1749=DIRECTION('',(0.,0.,-1.));
#1750=DIRECTION('',(0.,0.,1.));
#1751=DIRECTION('',(1.,0.,0.));
#1752=DIRECTION('',(-1.,7.2280144832367E-17,0.));
#1753=DIRECTION('',(-7.2280144832367E-17,-1.,0.));
#1754=DIRECTION('',(7.2280144832367E-17,1.,0.));
#1755=DIRECTION('',(0.,0.,1.));
#1756=DIRECTION('',(1.,0.,0.));
#1757=DIRECTION('',(0.,0.,1.));
#1758=DIRECTION('',(1.,0.,0.));
#1759=DIRECTION('',(-1.,0.,0.));
#1760=DIRECTION('',(0.,1.,0.));
#1761=DIRECTION('',(0.,-1.,0.));
#1762=DIRECTION('',(0.,0.,-1.));
#1763=DIRECTION('',(0.,0.,-1.));
#1764=DIRECTION('',(-1.,0.,0.));
#1765=DIRECTION('',(0.,0.,1.));
#1766=DIRECTION('',(0.,0.,1.));
#1767=DIRECTION('',(1.,0.,0.));
#1768=DIRECTION('',(-1.,0.,0.));
#1769=DIRECTION('',(0.,1.,0.));
#1770=DIRECTION('',(-1.,0.,0.));
#1771=DIRECTION('',(0.,0.,1.));
#1772=DIRECTION('',(0.,0.,-1.));
#1773=DIRECTION('',(0.,-1.,0.));
#1774=DIRECTION('',(0.,0.,-1.));
#1775=DIRECTION('',(-1.,0.,0.));
#1776=DIRECTION('',(0.,0.,1.));
#1777=DIRECTION('',(0.,1.,0.));
#1778=DIRECTION('',(0.,0.,1.));
#1779=DIRECTION('',(1.,0.,0.));
#1780=DIRECTION('',(-1.,0.,0.));
#1781=DIRECTION('',(0.,0.,1.));
#1782=DIRECTION('',(0.,1.,0.));
#1783=DIRECTION('',(0.,0.,1.));
#1784=DIRECTION('',(1.,0.,0.));
#1785=DIRECTION('',(0.,0.,1.));
#1786=DIRECTION('',(1.,0.,0.));
#1787=DIRECTION('',(0.,0.,-1.));
#1788=DIRECTION('',(-1.,0.,0.));
#1789=DIRECTION('',(0.,0.,1.));
#1790=DIRECTION('',(1.,0.,0.));
#1791=DIRECTION('',(0.,0.,1.));
#1792=DIRECTION('',(1.,0.,0.));
#1793=DIRECTION('',(0.,-1.,0.));
#1794=DIRECTION('',(0.,0.,-1.));
#1795=DIRECTION('',(1.,0.,0.));
#1796=DIRECTION('',(0.,0.,1.));
#1797=DIRECTION('',(1.,0.,0.));
#1798=DIRECTION('',(0.,0.,1.));
#1799=DIRECTION('',(0.,0.,1.));
#1800=DIRECTION('',(1.,0.,0.));
#1801=DIRECTION('',(0.,0.,1.));
#1802=DIRECTION('',(1.,0.,0.));
#1803=DIRECTION('',(0.,0.,1.));
#1804=DIRECTION('',(1.,0.,0.));
#1805=DIRECTION('',(0.,0.,1.));
#1806=DIRECTION('',(1.,1.41610079671576E-16,0.));
#1807=DIRECTION('',(-1.41610079671576E-16,1.,0.));
#1808=DIRECTION('',(-1.41610079671576E-16,1.,0.));
#1809=DIRECTION('',(-1.41610079671576E-16,1.,0.));
#1810=DIRECTION('',(0.,0.,1.));
#1811=DIRECTION('',(0.,0.,1.));
#1812=DIRECTION('',(1.,0.,0.));
#1813=DIRECTION('',(0.,0.,1.));
#1814=DIRECTION('',(1.,0.,0.));
#1815=DIRECTION('',(0.,0.,1.));
#1816=DIRECTION('',(1.,0.,0.));
#1817=DIRECTION('',(0.,0.,1.));
#1818=DIRECTION('',(0.,-1.,0.));
#1819=DIRECTION('',(0.,0.,-1.));
#1820=DIRECTION('',(1.,0.,0.));
#1821=DIRECTION('',(1.,0.,0.));
#1822=DIRECTION('',(0.,0.,1.));
#1823=DIRECTION('',(0.,0.,1.));
#1824=DIRECTION('',(1.,0.,0.));
#1825=DIRECTION('',(0.,0.,1.));
#1826=DIRECTION('',(1.,0.,0.));
#1827=DIRECTION('',(0.,0.,1.));
#1828=DIRECTION('',(1.,0.,0.));
#1829=DIRECTION('',(0.,0.,1.));
#1830=DIRECTION('',(1.,1.41610079671576E-16,0.));
#1831=DIRECTION('',(-1.41610079671576E-16,1.,0.));
#1832=DIRECTION('',(-1.41610079671576E-16,1.,0.));
#1833=DIRECTION('',(-1.41610079671576E-16,1.,0.));
#1834=DIRECTION('',(0.,0.,1.));
#1835=DIRECTION('',(0.,0.,1.));
#1836=DIRECTION('',(1.,0.,0.));
#1837=DIRECTION('',(0.,0.,1.));
#1838=DIRECTION('',(1.,0.,0.));
#1839=DIRECTION('',(0.,0.,1.));
#1840=DIRECTION('',(1.,0.,0.));
#1841=DIRECTION('',(0.,0.,1.));
#1842=DIRECTION('',(1.,0.,0.));
#1843=DIRECTION('',(-1.,0.,0.));
#1844=DIRECTION('',(0.,1.,0.));
#1845=DIRECTION('',(1.,0.,0.));
#1846=DIRECTION('',(0.,1.,0.));
#1847=DIRECTION('',(0.,1.,0.));
#1848=DIRECTION('',(-1.,0.,0.));
#1849=DIRECTION('',(0.,1.,0.));
#1850=DIRECTION('',(1.,0.,0.));
#1851=DIRECTION('',(1.,0.,0.));
#1852=DIRECTION('',(0.,1.,0.));
#1853=DIRECTION('',(-1.,0.,0.));
#1854=DIRECTION('',(0.,1.,0.));
#1855=DIRECTION('',(-1.,0.,0.));
#1856=DIRECTION('',(0.,1.,0.));
#1857=DIRECTION('',(1.,0.,0.));
#1858=DIRECTION('',(0.,1.,0.));
#1859=DIRECTION('',(0.,0.,1.));
#1860=DIRECTION('',(1.,0.,0.));
#1861=DIRECTION('',(-1.,0.,0.));
#1862=DIRECTION('',(0.,0.,1.));
#1863=DIRECTION('',(-0.707106781186548,0.707106781186548,0.));
#1864=DIRECTION('',(-0.707106781186548,-0.707106781186548,0.));
#1865=DIRECTION('',(-0.707106781186548,-0.707106781186548,0.));
#1866=DIRECTION('',(-0.707106781186548,0.707106781186548,0.));
#1867=DIRECTION('',(0.,-1.,0.));
#1868=DIRECTION('',(0.,0.,-1.));
#1869=DIRECTION('',(0.707106781186548,-0.707106781186548,0.));
#1870=DIRECTION('',(-0.707106781186548,-0.707106781186548,0.));
#1871=DIRECTION('',(0.,1.,0.));
#1872=DIRECTION('',(0.,0.,1.));
#1873=DIRECTION('',(0.707106781186548,0.707106781186548,0.));
#1874=DIRECTION('',(-0.707106781186548,0.707106781186548,0.));
#1875=DIRECTION('',(1.,0.,0.));
#1876=DIRECTION('',(0.,0.,-1.));
#1877=DIRECTION('',(0.,1.,0.));
#1878=DIRECTION('',(0.,0.,1.));
#1879=DIRECTION('',(0.707106781186548,0.707106781186548,0.));
#1880=DIRECTION('',(-0.707106781186548,0.707106781186548,0.));
#1881=DIRECTION('',(-0.707106781186548,0.707106781186548,0.));
#1882=DIRECTION('',(-0.707106781186548,-0.707106781186548,0.));
#1883=DIRECTION('',(-1.,0.,0.));
#1884=DIRECTION('',(0.,0.,1.));
#1885=DIRECTION('',(-0.707106781186548,-0.707106781186548,0.));
#1886=DIRECTION('',(-0.707106781186548,0.707106781186548,0.));
#1887=DIRECTION('',(1.,0.,0.));
#1888=DIRECTION('',(0.,0.,-1.));
#1889=DIRECTION('',(0.707106781186548,-0.707106781186548,0.));
#1890=DIRECTION('',(0.707106781186548,0.707106781186548,0.));
#1891=DIRECTION('',(0.,-1.,0.));
#1892=DIRECTION('',(0.,0.,-1.));
#1893=DIRECTION('',(0.,-1.,0.));
#1894=DIRECTION('',(0.,0.,-1.));
#1895=DIRECTION('',(0.707106781186548,-0.707106781186548,0.));
#1896=DIRECTION('',(0.707106781186548,0.707106781186548,0.));
#1897=DIRECTION('',(-0.707106781186548,-0.707106781186548,0.));
#1898=DIRECTION('',(0.707106781186548,-0.707106781186548,0.));
#1899=DIRECTION('',(-1.,0.,0.));
#1900=DIRECTION('',(0.,0.,1.));
#1901=DIRECTION('',(-0.707106781186548,0.707106781186548,0.));
#1902=DIRECTION('',(-0.707106781186548,-0.707106781186548,0.));
#1903=DIRECTION('',(1.,0.,0.));
#1904=DIRECTION('',(0.,0.,-1.));
#1905=DIRECTION('',(0.707106781186548,0.707106781186548,0.));
#1906=DIRECTION('',(0.707106781186548,-0.707106781186548,0.));
#1907=DIRECTION('',(0.,1.,0.));
#1908=DIRECTION('',(0.,0.,1.));
#1909=DIRECTION('',(0.,-1.,0.));
#1910=DIRECTION('',(0.,0.,-1.));
#1911=DIRECTION('',(0.707106781186548,-0.707106781186548,0.));
#1912=DIRECTION('',(-0.707106781186548,-0.707106781186548,0.));
#1913=DIRECTION('',(-0.707106781186548,-0.707106781186548,0.));
#1914=DIRECTION('',(0.707106781186548,-0.707106781186548,0.));
#1915=DIRECTION('',(-1.,0.,0.));
#1916=DIRECTION('',(0.,0.,1.));
#1917=DIRECTION('',(-0.707106781186548,0.707106781186548,0.));
#1918=DIRECTION('',(-0.707106781186548,-0.707106781186548,0.));
#1919=DIRECTION('',(1.,0.,0.));
#1920=DIRECTION('',(0.,0.,-1.));
#1921=DIRECTION('',(0.707106781186548,0.707106781186548,0.));
#1922=DIRECTION('',(0.707106781186548,-0.707106781186548,0.));
#1923=DIRECTION('',(0.,1.,0.));
#1924=DIRECTION('',(0.,0.,1.));
#1925=CARTESIAN_POINT('',(0.,0.,0.));
#1926=CARTESIAN_POINT('',(-0.0135,0.003,0.0015));
#1927=CARTESIAN_POINT('',(-0.0155,0.003,0.0015));
#1928=CARTESIAN_POINT('',(-0.0155,0.003,0.0364));
#1929=CARTESIAN_POINT('',(-0.0155,0.003,-0.0017));
#1930=CARTESIAN_POINT('',(-0.0135,0.003,0.0364));
#1931=CARTESIAN_POINT('',(-0.0115,0.003,0.0364));
#1932=CARTESIAN_POINT('',(-0.0115,0.003,0.0394));
#1933=CARTESIAN_POINT('',(-0.0115,0.003,0.0095));
#1934=CARTESIAN_POINT('',(-0.0115,0.003,0.0015));
#1935=CARTESIAN_POINT('',(-0.0115,0.003,0.));
#1936=CARTESIAN_POINT('',(-0.0115,0.003,0.0394));
#1937=CARTESIAN_POINT('',(-0.0115,0.003,-0.0017));
#1938=CARTESIAN_POINT('',(-0.0135,0.003,-0.0017));
#1939=CARTESIAN_POINT('',(-0.0155,-0.00325,0.0015));
#1940=CARTESIAN_POINT('',(-0.0155,0.0015,0.0394));
#1941=CARTESIAN_POINT('',(-0.0155,0.0015,0.0364));
#1942=CARTESIAN_POINT('',(-0.0155,0.0015,0.0075));
#1943=CARTESIAN_POINT('',(-0.0155,-0.00325,0.0364));
#1944=CARTESIAN_POINT('',(-0.0155,0.00225,-0.0017));
#1945=CARTESIAN_POINT('',(-0.0155,0.0015,-0.0017));
#1946=CARTESIAN_POINT('',(-0.0155,0.0015,0.0394));
#1947=CARTESIAN_POINT('',(-0.0155,0.0015,0.));
#1948=CARTESIAN_POINT('',(-0.0155,-0.00325,0.));
#1949=CARTESIAN_POINT('',(-0.0155,-0.0025,0.));
#1950=CARTESIAN_POINT('',(-0.0155,-0.0025,0.0394));
#1951=CARTESIAN_POINT('',(-0.0155,-0.0025,-0.0017));
#1952=CARTESIAN_POINT('',(-0.0155,-0.00325,-0.0017));
#1953=CARTESIAN_POINT('',(-0.0155,-0.004,-0.0017));
#1954=CARTESIAN_POINT('',(-0.0155,-0.004,0.0015));
#1955=CARTESIAN_POINT('',(-0.0155,-0.004,0.0364));
#1956=CARTESIAN_POINT('',(-0.0155,-0.00325,0.0364));
#1957=CARTESIAN_POINT('',(-0.0155,-0.0025,0.0364));
#1958=CARTESIAN_POINT('',(-0.0155,-0.0025,0.0394));
#1959=CARTESIAN_POINT('',(-0.0155,-0.0025,0.0075));
#1960=CARTESIAN_POINT('',(-0.0155,-0.0005,0.0075));
#1961=CARTESIAN_POINT('',(-0.0135,-0.004,0.0015));
#1962=CARTESIAN_POINT('',(-0.0115,-0.004,0.0394));
#1963=CARTESIAN_POINT('',(-0.0115,-0.004,0.0364));
#1964=CARTESIAN_POINT('',(-0.0115,-0.004,0.0095));
#1965=CARTESIAN_POINT('',(-0.0155,-0.004,0.0364));
#1966=CARTESIAN_POINT('',(-0.0135,-0.004,-0.0017));
#1967=CARTESIAN_POINT('',(-0.0115,-0.004,-0.0017));
#1968=CARTESIAN_POINT('',(-0.0115,-0.004,0.0394));
#1969=CARTESIAN_POINT('',(-0.0115,-0.004,0.));
#1970=CARTESIAN_POINT('',(-0.0115,-0.004,0.0015));
#1971=CARTESIAN_POINT('',(-0.0115,-0.00325,0.0394));
#1972=CARTESIAN_POINT('',(-0.0115,-0.0025,0.0394));
#1973=CARTESIAN_POINT('',(-0.0115,-0.0025,0.0364));
#1974=CARTESIAN_POINT('',(-0.0115,-0.0025,0.0095));
#1975=CARTESIAN_POINT('',(-0.0115,-0.004,0.0364));
#1976=CARTESIAN_POINT('',(-0.0115,0.00875,0.0095));
#1977=CARTESIAN_POINT('',(-0.0135,-0.0025,0.0394));
#1978=CARTESIAN_POINT('',(-0.0115,-0.0025,0.0364));
#1979=CARTESIAN_POINT('',(-0.0115,-0.0025,0.0394));
#1980=CARTESIAN_POINT('',(-0.0115,-0.0025,0.0075));
#1981=CARTESIAN_POINT('',(-0.0135,-0.0025,0.0075));
#1982=CARTESIAN_POINT('',(-0.0115,0.00225,0.0394));
#1983=CARTESIAN_POINT('',(-0.0115,0.0015,0.0364));
#1984=CARTESIAN_POINT('',(-0.0115,0.0015,0.0364));
#1985=CARTESIAN_POINT('',(-0.0115,0.0015,0.0394));
#1986=CARTESIAN_POINT('',(-0.0115,0.0015,0.0095));
#1987=CARTESIAN_POINT('',(-0.0115,0.00875,0.0095));
#1988=CARTESIAN_POINT('',(-0.0135,0.0015,0.0394));
#1989=CARTESIAN_POINT('',(-0.0135,0.0015,0.0364));
#1990=CARTESIAN_POINT('',(-0.0135,0.0015,0.0075));
#1991=CARTESIAN_POINT('',(-0.0115,0.0015,0.0075));
#1992=CARTESIAN_POINT('',(-0.0115,0.0015,0.0394));
#1993=CARTESIAN_POINT('',(0.0115,0.00225,0.0394));
#1994=CARTESIAN_POINT('',(0.0115,0.0015,0.0394));
#1995=CARTESIAN_POINT('',(0.0115,0.0015,0.0364));
#1996=CARTESIAN_POINT('',(0.0115,0.0015,0.0095));
#1997=CARTESIAN_POINT('',(0.0115,0.00225,0.0364));
#1998=CARTESIAN_POINT('',(0.0115,0.003,0.0364));
#1999=CARTESIAN_POINT('',(0.0115,0.003,0.0394));
#2000=CARTESIAN_POINT('',(0.0115,0.003,0.0095));
#2001=CARTESIAN_POINT('',(0.0115,-0.0005,0.0095));
#2002=CARTESIAN_POINT('',(0.0135,0.0015,0.0394));
#2003=CARTESIAN_POINT('',(0.0155,0.0015,0.0394));
#2004=CARTESIAN_POINT('',(0.0155,0.0015,0.0364));
#2005=CARTESIAN_POINT('',(0.0155,0.0015,0.0075));
#2006=CARTESIAN_POINT('',(0.0115,0.0015,0.0364));
#2007=CARTESIAN_POINT('',(0.0115,0.0015,0.0394));
#2008=CARTESIAN_POINT('',(0.0115,0.0015,0.0075));
#2009=CARTESIAN_POINT('',(0.0135,0.0015,0.0075));
#2010=CARTESIAN_POINT('',(0.0135,0.003,0.0394));
#2011=CARTESIAN_POINT('',(0.0155,0.003,0.0364));
#2012=CARTESIAN_POINT('',(0.0155,0.003,0.0364));
#2013=CARTESIAN_POINT('',(0.0155,0.003,0.0394));
#2014=CARTESIAN_POINT('',(0.0155,0.003,-0.0017));
#2015=CARTESIAN_POINT('',(0.0135,0.003,-0.0017));
#2016=CARTESIAN_POINT('',(0.0115,0.003,-0.0017));
#2017=CARTESIAN_POINT('',(0.0115,0.003,0.0394));
#2018=CARTESIAN_POINT('',(0.0115,0.003,0.));
#2019=CARTESIAN_POINT('',(0.0115,0.003,0.0394));
#2020=CARTESIAN_POINT('',(0.0115,-0.00325,0.0394));
#2021=CARTESIAN_POINT('',(0.0115,-0.004,0.0394));
#2022=CARTESIAN_POINT('',(0.0115,-0.004,0.0364));
#2023=CARTESIAN_POINT('',(0.0115,-0.004,0.0095));
#2024=CARTESIAN_POINT('',(0.0115,-0.00325,0.0364));
#2025=CARTESIAN_POINT('',(0.0115,-0.0025,0.0364));
#2026=CARTESIAN_POINT('',(0.0115,-0.0025,0.0394));
#2027=CARTESIAN_POINT('',(0.0115,-0.0025,0.0095));
#2028=CARTESIAN_POINT('',(0.0115,-0.0005,0.0095));
#2029=CARTESIAN_POINT('',(0.0135,-0.004,0.0394));
#2030=CARTESIAN_POINT('',(0.0155,-0.004,0.0394));
#2031=CARTESIAN_POINT('',(0.0155,-0.004,0.0364));
#2032=CARTESIAN_POINT('',(0.0155,-0.004,-0.0017));
#2033=CARTESIAN_POINT('',(0.0135,-0.004,0.0364));
#2034=CARTESIAN_POINT('',(0.0115,-0.004,0.0394));
#2035=CARTESIAN_POINT('',(0.0115,-0.004,0.));
#2036=CARTESIAN_POINT('',(0.0115,-0.004,0.0394));
#2037=CARTESIAN_POINT('',(0.0115,-0.004,-0.0017));
#2038=CARTESIAN_POINT('',(0.0135,-0.004,-0.0017));
#2039=CARTESIAN_POINT('',(0.0155,-0.00325,0.0394));
#2040=CARTESIAN_POINT('',(0.0155,-0.0025,0.0394));
#2041=CARTESIAN_POINT('',(0.0155,-0.0025,0.0364));
#2042=CARTESIAN_POINT('',(0.0155,-0.0025,0.0075));
#2043=CARTESIAN_POINT('',(0.0155,-0.004,0.0364));
#2044=CARTESIAN_POINT('',(0.0155,-0.00325,-0.0017));
#2045=CARTESIAN_POINT('',(0.0155,-0.0025,-0.0017));
#2046=CARTESIAN_POINT('',(0.0155,-0.0025,0.0394));
#2047=CARTESIAN_POINT('',(0.0155,-0.0025,0.));
#2048=CARTESIAN_POINT('',(0.0155,-0.0005,0.));
#2049=CARTESIAN_POINT('',(0.0155,0.0015,0.));
#2050=CARTESIAN_POINT('',(0.0155,0.0015,0.0394));
#2051=CARTESIAN_POINT('',(0.0155,0.0015,-0.0017));
#2052=CARTESIAN_POINT('',(0.0155,0.00225,-0.0017));
#2053=CARTESIAN_POINT('',(0.0155,0.0015,0.0364));
#2054=CARTESIAN_POINT('',(0.0155,-0.0005,0.0075));
#2055=CARTESIAN_POINT('',(0.0135,-0.0025,0.0394));
#2056=CARTESIAN_POINT('',(0.0135,-0.0025,0.0364));
#2057=CARTESIAN_POINT('',(0.0135,-0.0025,0.0075));
#2058=CARTESIAN_POINT('',(0.0115,-0.0025,0.0075));
#2059=CARTESIAN_POINT('',(0.0115,-0.0025,0.0394));
#2060=CARTESIAN_POINT('',(0.0135,0.0015,0.0394));
#2061=CARTESIAN_POINT('',(0.0135,0.0015,0.));
#2062=CARTESIAN_POINT('',(0.0115,0.0015,0.));
#2063=CARTESIAN_POINT('',(0.0115,0.0015,0.0394));
#2064=CARTESIAN_POINT('',(0.0115,0.0015,-0.0017));
#2065=CARTESIAN_POINT('',(0.0135,0.0015,-0.0017));
#2066=CARTESIAN_POINT('',(0.0135,-0.0025,0.0394));
#2067=CARTESIAN_POINT('',(0.0115,-0.0025,0.0394));
#2068=CARTESIAN_POINT('',(0.0115,-0.0025,0.));
#2069=CARTESIAN_POINT('',(0.0115,-0.0025,-0.0017));
#2070=CARTESIAN_POINT('',(0.0135,-0.0025,0.));
#2071=CARTESIAN_POINT('',(0.0135,-0.0025,-0.0017));
#2072=CARTESIAN_POINT('',(0.0115,0.0115,0.0015));
#2073=CARTESIAN_POINT('',(0.0115,-0.0005,0.0095));
#2074=CARTESIAN_POINT('',(0.0115,-0.0145,0.0095));
#2075=CARTESIAN_POINT('',(0.0115,-0.0145,0.0095));
#2076=CARTESIAN_POINT('',(0.0115,-0.0145,0.));
#2077=CARTESIAN_POINT('',(0.0115,0.0115,0.));
#2078=CARTESIAN_POINT('',(0.0115,0.0115,0.0015));
#2079=CARTESIAN_POINT('',(0.0115,-0.0005,0.0075));
#2080=CARTESIAN_POINT('',(0.0115,-0.0005,0.0095));
#2081=CARTESIAN_POINT('',(-0.0115,0.00875,0.0015));
#2082=CARTESIAN_POINT('',(-0.0115,-0.0005,0.0075));
#2083=CARTESIAN_POINT('',(-0.0115,0.00875,0.0095));
#2084=CARTESIAN_POINT('',(-0.0115,0.00875,0.0015));
#2085=CARTESIAN_POINT('',(-0.0115,0.00875,0.0095));
#2086=CARTESIAN_POINT('',(-0.0115,-0.0145,0.0095));
#2087=CARTESIAN_POINT('',(-0.0115,-0.00925,0.));
#2088=CARTESIAN_POINT('',(-0.0115,-0.0145,0.));
#2089=CARTESIAN_POINT('',(-0.0115,-0.0145,0.0015));
#2090=CARTESIAN_POINT('',(0.,0.,0.));
#2091=CARTESIAN_POINT('',(-0.0115,0.,0.));
#2092=CARTESIAN_POINT('',(-0.0115,-0.0025,0.));
#2093=CARTESIAN_POINT('',(0.,-0.0025,0.));
#2094=CARTESIAN_POINT('',(0.,0.0015,0.));
#2095=CARTESIAN_POINT('',(-0.0115,0.0015,0.));
#2096=CARTESIAN_POINT('',(-0.0115,0.,0.));
#2097=CARTESIAN_POINT('',(-0.0115,0.00875,0.));
#2098=CARTESIAN_POINT('',(-0.0115,0.0145,0.));
#2099=CARTESIAN_POINT('',(-0.01075,0.0145,0.));
#2100=CARTESIAN_POINT('',(0.0115,0.0145,0.));
#2101=CARTESIAN_POINT('',(0.0115,0.0115,0.));
#2102=CARTESIAN_POINT('',(0.0115,0.0115,0.));
#2103=CARTESIAN_POINT('',(0.0115,0.0115,0.));
#2104=CARTESIAN_POINT('',(-0.01075,-0.0145,0.));
#2105=CARTESIAN_POINT('',(-0.0135,-0.0005,0.));
#2106=CARTESIAN_POINT('',(-0.0125,-0.0005,0.));
#2107=CARTESIAN_POINT('',(0.0135,-0.0005,0.));
#2108=CARTESIAN_POINT('',(0.0145,-0.0005,0.));
#2109=CARTESIAN_POINT('',(-0.01075,-0.0145,0.0015));
#2110=CARTESIAN_POINT('',(-0.01075,-0.0145,0.0095));
#2111=CARTESIAN_POINT('',(0.0115,0.0115,0.0015));
#2112=CARTESIAN_POINT('',(0.0115,-0.0005,0.0095));
#2113=CARTESIAN_POINT('',(0.0115,0.0085,0.0095));
#2114=CARTESIAN_POINT('',(0.0115,0.0145,0.0015));
#2115=CARTESIAN_POINT('',(0.0115,0.0145,0.0015));
#2116=CARTESIAN_POINT('',(0.0115,0.0115,0.0015));
#2117=CARTESIAN_POINT('',(0.0115,0.0085,0.0015));
#2118=CARTESIAN_POINT('',(0.0115,0.0085,0.0095));
#2119=CARTESIAN_POINT('',(-0.01075,0.0145,0.0015));
#2120=CARTESIAN_POINT('',(-0.0115,0.0145,0.0015));
#2121=CARTESIAN_POINT('',(-0.0115,0.0145,0.0095));
#2122=CARTESIAN_POINT('',(-0.0025,0.0145,0.0095));
#2123=CARTESIAN_POINT('',(0.005,0.0145,0.0095));
#2124=CARTESIAN_POINT('',(0.005,0.0145,0.0095));
#2125=CARTESIAN_POINT('',(0.005,0.0145,0.0015));
#2126=CARTESIAN_POINT('',(-0.01075,0.0145,0.0015));
#2127=CARTESIAN_POINT('',(-0.0115,0.00875,0.0015));
#2128=CARTESIAN_POINT('',(-0.0115,0.00875,0.0095));
#2129=CARTESIAN_POINT('',(-0.0135,-0.0005,0.0015));
#2130=CARTESIAN_POINT('',(-0.0135,-0.0005,0.0075));
#2131=CARTESIAN_POINT('',(-0.0125,-0.0005,0.0075));
#2132=CARTESIAN_POINT('',(0.,0.,0.0015));
#2133=CARTESIAN_POINT('',(0.005,0.,0.0015));
#2134=CARTESIAN_POINT('',(0.005,0.013,0.0015));
#2135=CARTESIAN_POINT('',(0.,0.013,0.0015));
#2136=CARTESIAN_POINT('',(-0.009,0.013,0.0015));
#2137=CARTESIAN_POINT('',(-0.009,0.012,0.0015));
#2138=CARTESIAN_POINT('',(-0.01,0.012,0.0015));
#2139=CARTESIAN_POINT('',(-0.01,7.2280144832367E-19,0.0015));
#2140=CARTESIAN_POINT('',(-0.01,-0.012,0.0015));
#2141=CARTESIAN_POINT('',(-0.009,-0.012,0.0015));
#2142=CARTESIAN_POINT('',(-0.009,-0.013,0.0015));
#2143=CARTESIAN_POINT('',(0.,-0.013,0.0015));
#2144=CARTESIAN_POINT('',(0.009,-0.013,0.0015));
#2145=CARTESIAN_POINT('',(0.009,-0.012,0.0015));
#2146=CARTESIAN_POINT('',(0.01,-0.012,0.0015));
#2147=CARTESIAN_POINT('',(0.01,-0.00175,0.0015));
#2148=CARTESIAN_POINT('',(0.01,0.0085,0.0015));
#2149=CARTESIAN_POINT('',(0.01075,0.0085,0.0015));
#2150=CARTESIAN_POINT('',(-0.009,0.012,0.0095));
#2151=CARTESIAN_POINT('',(-0.01,0.012,0.0095));
#2152=CARTESIAN_POINT('',(-0.01,0.012,0.0095));
#2153=CARTESIAN_POINT('',(-0.009,0.013,0.0095));
#2154=CARTESIAN_POINT('',(-0.009,0.013,0.0095));
#2155=CARTESIAN_POINT('',(-0.009,0.012,0.0095));
#2156=CARTESIAN_POINT('',(-0.002,0.013,0.0095));
#2157=CARTESIAN_POINT('',(0.005,0.013,0.0095));
#2158=CARTESIAN_POINT('',(0.005,0.013,0.0095));
#2159=CARTESIAN_POINT('',(-0.002,0.013,0.0095));
#2160=CARTESIAN_POINT('',(0.005,0.01375,0.0095));
#2161=CARTESIAN_POINT('',(0.005,0.01375,0.0095));
#2162=CARTESIAN_POINT('',(0.01075,0.0085,0.0095));
#2163=CARTESIAN_POINT('',(0.01,0.0085,0.0095));
#2164=CARTESIAN_POINT('',(0.01,0.0085,0.0095));
#2165=CARTESIAN_POINT('',(0.01075,0.0085,0.0095));
#2166=CARTESIAN_POINT('',(0.01,-0.00175,0.0095));
#2167=CARTESIAN_POINT('',(0.01,-0.012,0.0095));
#2168=CARTESIAN_POINT('',(0.01,-0.012,0.0095));
#2169=CARTESIAN_POINT('',(0.01,-0.00175,0.0095));
#2170=CARTESIAN_POINT('',(0.009,-0.012,0.0095));
#2171=CARTESIAN_POINT('',(0.009,-0.013,0.0095));
#2172=CARTESIAN_POINT('',(0.009,-0.013,0.0095));
#2173=CARTESIAN_POINT('',(0.009,-0.012,0.0095));
#2174=CARTESIAN_POINT('',(-1.7347234759768E-18,-0.013,0.0095));
#2175=CARTESIAN_POINT('',(-0.009,-0.013,0.0095));
#2176=CARTESIAN_POINT('',(-0.009,-0.013,0.0095));
#2177=CARTESIAN_POINT('',(-1.7347234759768E-18,-0.013,0.0095));
#2178=CARTESIAN_POINT('',(-0.009,-0.012,0.0095));
#2179=CARTESIAN_POINT('',(-0.01,-0.012,0.0095));
#2180=CARTESIAN_POINT('',(-0.01,-0.012,0.0095));
#2181=CARTESIAN_POINT('',(-0.009,-0.012,0.0095));
#2182=CARTESIAN_POINT('',(-0.01,0.,0.0095));
#2183=CARTESIAN_POINT('',(-0.01,0.,0.0095));
#2184=CARTESIAN_POINT('',(0.,0.,0.0095));
#2185=CARTESIAN_POINT('',(0.,0.,-0.0017));
#2186=CARTESIAN_POINT('',(-0.0135,-0.0025,-0.0017));
#2187=CARTESIAN_POINT('',(-0.0115,-0.0025,-0.0017));
#2188=CARTESIAN_POINT('',(-0.0115,-0.00325,-0.0017));
#2189=CARTESIAN_POINT('',(-0.0135,-0.0025,0.0394));
#2190=CARTESIAN_POINT('',(-0.0115,-0.0025,0.0394));
#2191=CARTESIAN_POINT('',(-0.0115,-0.00325,0.0394));
#2192=CARTESIAN_POINT('',(0.,0.,-0.0017));
#2193=CARTESIAN_POINT('',(-0.0135,0.0015,-0.0017));
#2194=CARTESIAN_POINT('',(-0.0115,0.0015,-0.0017));
#2195=CARTESIAN_POINT('',(-0.0115,0.00225,-0.0017));
#2196=CARTESIAN_POINT('',(-0.0115,0.00225,0.0394));
#2197=CARTESIAN_POINT('',(-0.0115,0.0015,0.0394));
#2198=CARTESIAN_POINT('',(-0.0135,0.0015,0.0394));
#2199=CARTESIAN_POINT('',(0.0115,0.00225,0.0394));
#2200=CARTESIAN_POINT('',(0.0115,0.00225,-0.0017));
#2201=CARTESIAN_POINT('',(0.,0.,-0.0017));
#2202=CARTESIAN_POINT('',(0.0115,-0.00325,0.0394));
#2203=CARTESIAN_POINT('',(0.0115,-0.00325,-0.0017));
#2204=CARTESIAN_POINT('',(0.,0.,-0.0017));
#2205=CARTESIAN_POINT('',(0.,0.,0.0075));
#2206=CARTESIAN_POINT('',(0.0135,-0.0005,0.0075));
#2207=CARTESIAN_POINT('',(0.0135,-0.0005,0.0075));
#2208=CARTESIAN_POINT('',(0.0145,-0.0005,0.0075));
#2209=CARTESIAN_POINT('',(0.,0.,0.0075));
#2210=CARTESIAN_POINT('',(-1.7347234759768E-18,0.0295,0.0374));
#2211=CARTESIAN_POINT('',(-1.7347234759768E-18,0.0295,0.0394));
#2212=CARTESIAN_POINT('',(-0.0125,0.0295,0.0394));
#2213=CARTESIAN_POINT('',(0.0125,0.0295,0.0394));
#2214=CARTESIAN_POINT('',(0.0125,0.0295,0.0374));
#2215=CARTESIAN_POINT('',(0.0125,0.0295,0.0374));
#2216=CARTESIAN_POINT('',(-1.7347234759768E-18,0.0295,0.0374));
#2217=CARTESIAN_POINT('',(-0.0125,0.0295,0.0374));
#2218=CARTESIAN_POINT('',(-0.0125,0.0295,0.0374));
#2219=CARTESIAN_POINT('',(-0.0125,0.0245,0.0374));
#2220=CARTESIAN_POINT('',(-0.0125,0.0245,0.0394));
#2221=CARTESIAN_POINT('',(-0.0175,0.0245,0.0394));
#2222=CARTESIAN_POINT('',(-0.0125,0.0245,0.0374));
#2223=CARTESIAN_POINT('',(-0.0175,0.0245,0.0374));
#2224=CARTESIAN_POINT('',(-0.0175,0.0245,0.0374));
#2225=CARTESIAN_POINT('',(-0.0175,0.,0.0374));
#2226=CARTESIAN_POINT('',(-0.0175,0.,0.0394));
#2227=CARTESIAN_POINT('',(-0.0175,-0.0245,0.0394));
#2228=CARTESIAN_POINT('',(-0.0175,0.,0.0374));
#2229=CARTESIAN_POINT('',(-0.0175,-0.0245,0.0374));
#2230=CARTESIAN_POINT('',(-0.0175,-0.0245,0.0374));
#2231=CARTESIAN_POINT('',(-0.0125,-0.0245,0.0374));
#2232=CARTESIAN_POINT('',(-0.0125,-0.0245,0.0394));
#2233=CARTESIAN_POINT('',(-0.0125,-0.0295,0.0394));
#2234=CARTESIAN_POINT('',(-0.0125,-0.0245,0.0374));
#2235=CARTESIAN_POINT('',(-0.0125,-0.0295,0.0374));
#2236=CARTESIAN_POINT('',(-0.0125,-0.0295,0.0374));
#2237=CARTESIAN_POINT('',(6.93889390390723E-18,-0.0295,0.0374));
#2238=CARTESIAN_POINT('',(6.93889390390723E-18,-0.0295,0.0394));
#2239=CARTESIAN_POINT('',(0.0125,-0.0295,0.0394));
#2240=CARTESIAN_POINT('',(6.93889390390723E-18,-0.0295,0.0374));
#2241=CARTESIAN_POINT('',(0.0125,-0.0295,0.0374));
#2242=CARTESIAN_POINT('',(0.0125,-0.0295,0.0374));
#2243=CARTESIAN_POINT('',(0.0125,-0.0245,0.0374));
#2244=CARTESIAN_POINT('',(0.0125,-0.0245,0.0394));
#2245=CARTESIAN_POINT('',(0.0175,-0.0245,0.0394));
#2246=CARTESIAN_POINT('',(0.0125,-0.0245,0.0374));
#2247=CARTESIAN_POINT('',(0.0175,-0.0245,0.0374));
#2248=CARTESIAN_POINT('',(0.0175,-0.0245,0.0374));
#2249=CARTESIAN_POINT('',(0.0175,0.,0.0374));
#2250=CARTESIAN_POINT('',(0.0175,0.,0.0394));
#2251=CARTESIAN_POINT('',(0.0175,0.0245,0.0394));
#2252=CARTESIAN_POINT('',(0.0175,0.,0.0374));
#2253=CARTESIAN_POINT('',(0.0175,0.0245,0.0374));
#2254=CARTESIAN_POINT('',(0.0175,0.0245,0.0374));
#2255=CARTESIAN_POINT('',(0.0125,0.0245,0.0374));
#2256=CARTESIAN_POINT('',(0.0125,0.0245,0.0394));
#2257=CARTESIAN_POINT('',(0.0125,0.0245,0.0374));
#2258=CARTESIAN_POINT('',(0.,-3.46944695195361E-18,0.0374));
#2259=CARTESIAN_POINT('',(0.,0.0005,0.0374));
#2260=CARTESIAN_POINT('',(-0.0165,0.0005,0.0374));
#2261=CARTESIAN_POINT('',(-0.0105,0.0005,0.0374));
#2262=CARTESIAN_POINT('',(-0.0105,0.003,0.0374));
#2263=CARTESIAN_POINT('',(-0.0105,0.004,0.0374));
#2264=CARTESIAN_POINT('',(0.,0.004,0.0374));
#2265=CARTESIAN_POINT('',(-0.0165,0.004,0.0374));
#2266=CARTESIAN_POINT('',(-0.0165,-3.46944695195361E-18,0.0374));
#2267=CARTESIAN_POINT('',(-0.0105,-0.0025,0.0374));
#2268=CARTESIAN_POINT('',(-0.0105,-0.005,0.0374));
#2269=CARTESIAN_POINT('',(-0.0105,-0.0015,0.0374));
#2270=CARTESIAN_POINT('',(-0.0155,-0.0015,0.0374));
#2271=CARTESIAN_POINT('',(-0.0165,-0.0015,0.0374));
#2272=CARTESIAN_POINT('',(-0.0165,-3.46944695195361E-18,0.0374));
#2273=CARTESIAN_POINT('',(-0.0165,-0.005,0.0374));
#2274=CARTESIAN_POINT('',(-0.0115,-0.005,0.0374));
#2275=CARTESIAN_POINT('',(0.,-0.0015,0.0374));
#2276=CARTESIAN_POINT('',(0.0165,-0.0015,0.0374));
#2277=CARTESIAN_POINT('',(0.0105,-0.0015,0.0374));
#2278=CARTESIAN_POINT('',(0.0105,-3.46944695195361E-18,0.0374));
#2279=CARTESIAN_POINT('',(0.0105,-0.005,0.0374));
#2280=CARTESIAN_POINT('',(0.,-0.005,0.0374));
#2281=CARTESIAN_POINT('',(0.0165,-0.005,0.0374));
#2282=CARTESIAN_POINT('',(0.0165,-0.0025,0.0374));
#2283=CARTESIAN_POINT('',(0.0115,0.004,0.0374));
#2284=CARTESIAN_POINT('',(0.0165,0.004,0.0374));
#2285=CARTESIAN_POINT('',(0.0105,0.004,0.0374));
#2286=CARTESIAN_POINT('',(0.0105,-3.46944695195361E-18,0.0374));
#2287=CARTESIAN_POINT('',(0.0105,0.0005,0.0374));
#2288=CARTESIAN_POINT('',(0.0155,0.0005,0.0374));
#2289=CARTESIAN_POINT('',(0.0165,0.0005,0.0374));
#2290=CARTESIAN_POINT('',(0.0165,0.003,0.0374));
#2291=CARTESIAN_POINT('',(0.,0.,0.0394));
#2292=CARTESIAN_POINT('',(0.,-0.005,0.0364));
#2293=CARTESIAN_POINT('',(-0.0165,-0.005,0.0364));
#2294=CARTESIAN_POINT('',(-0.0105,-0.005,0.0364));
#2295=CARTESIAN_POINT('',(-0.0105,-3.46944695195361E-18,0.0364));
#2296=CARTESIAN_POINT('',(-0.0105,-0.0015,0.0364));
#2297=CARTESIAN_POINT('',(-0.0165,-0.00325,0.0364));
#2298=CARTESIAN_POINT('',(-0.0165,-0.0015,0.0364));
#2299=CARTESIAN_POINT('',(0.,-0.0015,0.0364));
#2300=CARTESIAN_POINT('',(-0.0165,-0.00325,0.0364));
#2301=CARTESIAN_POINT('',(-0.0165,0.004,0.0364));
#2302=CARTESIAN_POINT('',(-0.0165,0.0005,0.0364));
#2303=CARTESIAN_POINT('',(-0.0135,0.0005,0.0364));
#2304=CARTESIAN_POINT('',(-0.0105,0.0005,0.0364));
#2305=CARTESIAN_POINT('',(-0.0135,0.004,0.0364));
#2306=CARTESIAN_POINT('',(-0.0105,0.004,0.0364));
#2307=CARTESIAN_POINT('',(-0.0105,-3.46944695195361E-18,0.0364));
#2308=CARTESIAN_POINT('',(0.0165,-3.46944695195361E-18,0.0364));
#2309=CARTESIAN_POINT('',(0.0165,-0.0015,0.0364));
#2310=CARTESIAN_POINT('',(0.0165,-0.005,0.0364));
#2311=CARTESIAN_POINT('',(0.0135,-0.005,0.0364));
#2312=CARTESIAN_POINT('',(0.0105,-0.005,0.0364));
#2313=CARTESIAN_POINT('',(0.0135,-0.0015,0.0364));
#2314=CARTESIAN_POINT('',(0.0105,-0.0015,0.0364));
#2315=CARTESIAN_POINT('',(0.0105,-0.00325,0.0364));
#2316=CARTESIAN_POINT('',(0.0165,-3.46944695195361E-18,0.0364));
#2317=CARTESIAN_POINT('',(0.0165,0.004,0.0364));
#2318=CARTESIAN_POINT('',(0.0165,0.0005,0.0364));
#2319=CARTESIAN_POINT('',(0.,0.0005,0.0364));
#2320=CARTESIAN_POINT('',(0.0105,0.0005,0.0364));
#2321=CARTESIAN_POINT('',(0.,0.004,0.0364));
#2322=CARTESIAN_POINT('',(0.0105,0.004,0.0364));
#2323=CARTESIAN_POINT('',(0.0105,0.00225,0.0364));
#2324=MECHANICAL_DESIGN_GEOMETRIC_PRESENTATION_REPRESENTATION('',(#1417),
#2325);
#2325=(
GEOMETRIC_REPRESENTATION_CONTEXT(3)
GLOBAL_UNCERTAINTY_ASSIGNED_CONTEXT((#2326))
GLOBAL_UNIT_ASSIGNED_CONTEXT((#2329,#2328,#2327))
REPRESENTATION_CONTEXT('Battery Holder','TOP_LEVEL_ASSEMBLY_PART')
);
#2326=UNCERTAINTY_MEASURE_WITH_UNIT(LENGTH_MEASURE(1.E-8),#2329,
'DISTANCE_ACCURACY_VALUE','Maximum Tolerance applied to model');
#2327=(
NAMED_UNIT(*)
SI_UNIT($,.STERADIAN.)
SOLID_ANGLE_UNIT()
);
#2328=(
NAMED_UNIT(*)
PLANE_ANGLE_UNIT()
SI_UNIT($,.RADIAN.)
);
#2329=(
LENGTH_UNIT()
NAMED_UNIT(*)
SI_UNIT($,.METRE.)
);
#2330=PRODUCT_DEFINITION_SHAPE('','',#2331);
#2331=PRODUCT_DEFINITION('','',#2333,#2332);
#2332=PRODUCT_DEFINITION_CONTEXT('',#2339,'design');
#2333=PRODUCT_DEFINITION_FORMATION_WITH_SPECIFIED_SOURCE('','',#2335,
 .NOT_KNOWN.);
#2334=PRODUCT_RELATED_PRODUCT_CATEGORY('','',(#2335));
#2335=PRODUCT('Battery Holder','Battery Holder','Battery Holder',(#2337));
#2336=PRODUCT_CATEGORY('','');
#2337=PRODUCT_CONTEXT('',#2339,'mechanical');
#2338=APPLICATION_PROTOCOL_DEFINITION('international standard',
'ap242_managed_model_based_3d_engineering',2020,#2339);
#2339=APPLICATION_CONTEXT('managed model based 3d engineering');
ENDSEC;
END-ISO-10303-21;
